<?xml version="1.0" encoding="UTF-8"?>
<!DOCTYPE svg PUBLIC "-//W3C//DTD SVG 1.1//EN" "http://www.w3.org/Graphics/SVG/1.1/DTD/svg11.dtd">
<!-- Creator: CorelDRAW 2018 (64 Bit) -->
<svg xmlns="http://www.w3.org/2000/svg" xml:space="preserve" width="30px" height="30px" version="1.1" style="shape-rendering:geometricPrecision; text-rendering:geometricPrecision; image-rendering:optimizeQuality; fill-rule:evenodd; clip-rule:evenodd"
viewBox="0 0 30 30"
 xmlns:xlink="http://www.w3.org/1999/xlink">
 <defs>
  <style type="text/css">
   <![CDATA[
    .atyle_acti1 {fill:#336666}
    .style_acti2 {fill:white}
   ]]>
  </style>
 </defs>
 <g id="Capa_x0020_1">
  <metadata id="CorelCorpID_0Corel-Layer"/>
  <circle class="style_acti2" cx="15.15" cy="14.85" r="14.625"/>
  <g id="_2128843867872">
   <path class="atyle_acti1" d="M4.909 8.469c0,1.461 2.994,3.867 5.467,3.867 0.757,0 1.293,-0.251 2,-0.267 0.171,0.641 2.094,3.66 2.267,4.4 -0.604,0.161 -1.938,1.146 -2.443,1.558 -0.212,0.173 -0.312,0.241 -0.522,0.411 -1.235,0.998 -1.092,1.413 -1.923,3.144 -0.419,0.874 -1.249,2.102 -1.013,2.775 0.241,0.685 0.797,0.912 1.501,0.912 1.203,0 1.625,-2.481 2.801,-4.399 0.298,-0.486 1.422,-1.286 1.971,-1.629 0.878,-0.549 1.739,-0.808 2.428,-1.172 2.76,4.121 7.866,2.266 7.866,0.933 0,-3.135 -2.557,-1.333 -3.333,-1.333 -1.128,0 -1.53,-0.365 -2.27,-1.33 -0.756,-0.986 -2.068,-3.942 -2.803,-5.197 -0.212,-0.363 -0.413,-0.582 -0.527,-1.073 2.055,-0.479 2.813,0.273 3.963,1.503 1.441,1.542 2.57,0.216 2.57,-0.57 0,-1.462 -4.459,-5.726 -9.173,-2.64l-1.456 0.811c-2.139,1.06 -3.559,0.358 -4.91,-1.298 -1.022,-1.252 -2.461,-0.35 -2.461,0.594z"/>
   <path class="atyle_acti1" d="M9.443 6.335c0,2.628 3.244,2.812 4.021,0.956 0.772,-1.843 -0.86,-2.956 -1.621,-2.956 -1.299,0 -2.4,0.49 -2.4,2z"/>
  </g>
 </g>
</svg>
