<?xml version="1.0" encoding="UTF-8"?>
<!DOCTYPE svg PUBLIC "-//W3C//DTD SVG 1.1//EN" "http://www.w3.org/Graphics/SVG/1.1/DTD/svg11.dtd">
<!-- Creator: CorelDRAW 2018 (64 Bit) -->
<svg xmlns="http://www.w3.org/2000/svg" xml:space="preserve" width="220px" height="220px" version="1.1" style="shape-rendering:geometricPrecision; text-rendering:geometricPrecision; image-rendering:optimizeQuality; fill-rule:evenodd; clip-rule:evenodd"
viewBox="0 0 220 220"
 xmlns:xlink="http://www.w3.org/1999/xlink">
 <defs>
  <style type="text/css">
   <![CDATA[
    .fil0 {fill:#78909C}
   ]]>
  </style>
 </defs>
 <g id="Capa_x0020_1">
  <metadata id="CorelCorpID_0Corel-Layer"/>
  <path class="fil0" d="M131.245 155.88c-21.915,4.679 -26.092,17.525 -9.367,31.963l69.3 0c24.627,-21.402 -1.013,-28.938 -5.61,-33.396 8.153,-15.533 -11.722,-32.687 -25.169,-40.316 0.906,25.25 -33.36,25.99 -29.154,41.749z"/>
  <path class="fil0" d="M30.291 157.133c-21.914,4.679 -26.092,17.524 -9.367,31.962l69.3 0c24.628,-21.402 -1.012,-28.938 -5.609,-33.395 8.152,-15.533 -11.722,-32.687 -25.17,-40.316 0.906,25.25 -33.359,25.99 -29.154,41.749z"/>
  <path class="fil0" d="M81.531 81.31c-21.914,4.679 -26.092,17.524 -9.367,31.962l69.3 0c24.628,-21.402 -1.012,-28.938 -5.609,-33.395 8.152,-15.533 -11.723,-32.687 -25.17,-40.316 0.906,25.249 -33.359,25.99 -29.154,41.749z"/>
 </g>
</svg>
