<svg height="512pt" viewBox="0 -2 512.00036 512" width="512pt" xmlns="http://www.w3.org/2000/svg"><path d="m353.914062 129.773438h-195.824218v-119.78125c0-5.519532 4.472656-9.992188 9.988281-9.992188h175.84375c5.515625 0 9.992187 4.472656 9.992187 9.992188zm0 0" fill="#a0ecff"/><path d="m443.289062 62.839844v211.796875c0 78.394531-41.953124 150.796875-109.96875 189.785156l-72.351562 41.472656c-3.078125 1.761719-6.859375 1.761719-9.9375 0l-72.351562-41.472656c-68.015626-38.988281-109.96875-111.390625-109.96875-189.785156v-211.796875c0-5.519532 4.472656-9.992188 9.988281-9.992188h354.597656c5.519531 0 9.992187 4.472656 9.992187 9.992188zm0 0" fill="#38aaff"/><path d="m443.292969 62.84375v211.789062c0 78.398438-41.953125 150.804688-109.972657 189.789063l-72.355468 41.472656c-3.074219 1.757813-6.851563 1.757813-9.929688 0l-25.527344-14.625 46.828126-26.847656c68.019531-38.984375 109.972656-111.390625 109.972656-189.789063v-211.789062c0-5.527344-4.476563-9.992188-9.992188-9.992188h60.984375c5.515625 0 9.992188 4.464844 9.992188 9.992188zm0 0" fill="#2081f6"/><path d="m411.960938 95.835938v183.042968c0 65.28125-34.941407 125.578125-91.578126 158.039063l-60.246093 34.527343c-.179688.101563-.371094.203126-.558594.292969-2.449219 1.167969-5.335937 1.078125-7.714844-.292969l-60.246093-34.527343c-56.636719-32.460938-91.578126-92.757813-91.578126-158.039063v-183.042968c0-4.597657 3.726563-8.324219 8.324219-8.324219h295.273438c4.597656 0 8.324219 3.726562 8.324219 8.324219zm0 0" fill="#a0ecff"/><path d="m411.960938 95.835938v183.042968c0 65.28125-34.941407 125.578125-91.578126 158.039063l-60.246093 34.527343c-.179688.101563-.371094.203126-.558594.292969l12.757813-7.3125c68.019531-38.988281 109.96875-111.390625 109.96875-189.792969v-187.121093h21.332031c4.597656 0 8.324219 3.726562 8.324219 8.324219zm0 0" fill="#60daff"/><path d="m464.773438 219.765625c-11.695313 12.492187-25.144532 25.207031-40.035157 37.925781-24.269531 20.738282-52.394531 41.464844-83.082031 61.230469-12.59375 8.125-25.628906 16.074219-38.996094 23.789063-9.929687 5.734374-19.871094 11.238281-29.789062 16.503906-5.632813 2.988281-11.269532 5.898437-16.871094 8.714844-50.089844 25.25-98.859375 43.914062-140.867188 53.703124-21.484374 5-40.21875 7.5-55.996093 7.5-27.300781 0-45.742188-7.460937-54.273438-22.246093-15.09375-26.136719 5.703125-68.46875 58.546875-119.222657 1.550782-1.488281 3.574219-2.203124 5.574219-2.121093.273437 5.582031.765625 11.121093 1.46875 16.625-42.773437 41.996093-62.785156 78.96875-52.332031 97.0625 9.324218 16.167969 44.300781 18.960937 93.53125 7.492187 38.085937-8.878906 82.011718-25.320312 127.480468-47.507812 5.601563-2.726563 11.222657-5.550782 16.867188-8.460938 12.953125-6.664062 25.996094-13.777344 39.007812-21.296875 6-3.472656 11.941407-6.980469 17.789063-10.53125 32.226563-19.554687 62.015625-40.324219 87.980469-61.234375 20.113281-16.195312 37.933594-32.484375 52.824218-48.386718 34.554688-36.902344 49.617188-68.589844 40.28125-84.753907-6.1875-10.707031-23.984374-15.769531-50.152343-14.25-.152344.011719-.292969.011719-.4375.011719v-15.308594c32.914062-1.835937 54.394531 5.511719 63.847656 21.890625 13.46875 23.320313-1.183594 58.898438-42.367187 102.871094zm0 0" fill="#d9efec"/><path d="m507.140625 406.886719c-8.535156 14.777343-26.972656 22.246093-54.273437 22.246093-15.777344 0-34.507813-2.488281-56-7.5-54.988282-12.820312-121.589844-40.84375-187.527344-78.921874-13.367188-7.714844-26.402344-15.664063-38.992188-23.789063-30.691406-19.765625-58.816406-40.496094-83.085937-61.230469-14.890625-12.71875-28.339844-25.433594-40.035157-37.925781-41.179687-43.972656-55.835937-79.550781-42.367187-102.871094 9.453125-16.378906 30.933594-23.726562 63.847656-21.890625v15.308594c-.144531 0-.296875 0-.4375-.011719-26.160156-1.53125-43.96875 3.53125-50.152343 14.246094-9.335938 16.167969 5.726562 47.855469 40.28125 84.757813 14.890624 15.902343 32.710937 32.1875 52.824218 48.386718 25.964844 20.910156 55.753906 41.679688 87.984375 61.230469 5.847657 3.554687 11.785157 7.0625 17.785157 10.535156 64.675781 37.339844 129.796874 64.78125 183.355468 77.265625 49.230469 11.46875 84.203125 8.671875 93.53125-7.492187 10.453125-18.085938-9.5625-55.070313-52.324218-97.074219.695312-5.492188 1.183593-11.03125 1.460937-16.617188 1.988281-.082031 4.019531.632813 5.570313 2.125 52.847656 50.742188 73.648437 93.085938 58.554687 119.222657zm0 0" fill="#d9efec"/><path d="m349.078125 298.238281c0 51.40625-41.671875 93.078125-93.078125 93.078125s-93.078125-41.671875-93.078125-93.078125c0-40.34375 57.328125-126.808593 82.003906-162.15625 5.375-7.703125 16.773438-7.703125 22.148438 0 24.675781 35.347657 82.003906 121.8125 82.003906 162.15625zm0 0" fill="#f55"/><path d="m349.070312 298.234375c0 51.414063-41.671874 93.085937-93.070312 93.085937-8.492188 0-16.734375-1.140624-24.550781-3.277343 39.492187-10.777344 68.519531-46.898438 68.519531-89.804688 0-34.09375-40.945312-101.128906-68.519531-142.414062 5.042969-7.566407 9.648437-14.269531 13.46875-19.734375 5.386719-7.710938 16.773437-7.710938 22.164062 0 24.671875 35.339844 81.988281 121.800781 81.988281 162.144531zm0 0" fill="#f72b2b"/><g fill="#2081f6"><path d="m191.453125 137.425781h-57.445313c-4.230468 0-7.65625-3.425781-7.65625-7.652343 0-4.226563 3.425782-7.652344 7.65625-7.652344h57.445313c4.226563 0 7.652344 3.425781 7.652344 7.652344 0 4.226562-3.425781 7.652343-7.652344 7.652343zm0 0"/><path d="m171.472656 167.925781h-37.464844c-4.230468 0-7.65625-3.425781-7.65625-7.652343 0-4.230469 3.425782-7.65625 7.65625-7.65625h37.464844c4.226563 0 7.652344 3.425781 7.652344 7.65625 0 4.226562-3.425781 7.652343-7.652344 7.652343zm0 0"/><path d="m151.488281 198.425781h-17.480469c-4.230468 0-7.65625-3.425781-7.65625-7.65625 0-4.226562 3.425782-7.652343 7.65625-7.652343h17.480469c4.226563 0 7.65625 3.425781 7.65625 7.652343 0 4.230469-3.429687 7.65625-7.65625 7.65625zm0 0"/><path d="m377.992188 137.425781h-57.445313c-4.226563 0-7.65625-3.425781-7.65625-7.652343 0-4.226563 3.429687-7.652344 7.65625-7.652344h57.445313c4.226562 0 7.65625 3.425781 7.65625 7.652344 0 4.226562-3.425782 7.652343-7.65625 7.652343zm0 0"/><path d="m377.992188 167.925781h-37.464844c-4.226563 0-7.652344-3.425781-7.652344-7.652343 0-4.230469 3.425781-7.65625 7.652344-7.65625h37.464844c4.226562 0 7.65625 3.425781 7.65625 7.65625 0 4.226562-3.425782 7.652343-7.65625 7.652343zm0 0"/><path d="m377.992188 198.425781h-17.480469c-4.230469 0-7.65625-3.425781-7.65625-7.65625 0-4.226562 3.425781-7.652343 7.65625-7.652343h17.480469c4.226562 0 7.65625 3.425781 7.65625 7.652343 0 4.230469-3.425782 7.65625-7.65625 7.65625zm0 0"/></g></svg>