<?xml version="1.0" encoding="UTF-8"?>
<!DOCTYPE svg PUBLIC "-//W3C//DTD SVG 1.1//EN" "http://www.w3.org/Graphics/SVG/1.1/DTD/svg11.dtd">
<!-- Creator: CorelDRAW 2018 (64 Bit) -->
<svg xmlns="http://www.w3.org/2000/svg" xml:space="preserve" width="220px" height="220px" version="1.1" style="shape-rendering:geometricPrecision; text-rendering:geometricPrecision; image-rendering:optimizeQuality; fill-rule:evenodd; clip-rule:evenodd"
viewBox="0 0 220 220"
 xmlns:xlink="http://www.w3.org/1999/xlink">
 <defs>
  <style type="text/css">
   <![CDATA[
    .fil0 {fill:#6699FF}
   ]]>
  </style>
 </defs>
 <g id="Capa_x0020_1">
  <metadata id="CorelCorpID_0Corel-Layer"/>
  <path class="fil0" d="M114.8 99.911c0.901,-0.303 2.043,-1.781 2.102,-2.719 1.321,-22.617 -17.355,-52.769 -24.08,-62.836 -5.415,2.158 -10.684,5.647 -15.547,10.963 0,0 -9.714,6.519 -13.16,38.191 18.168,23.528 40.743,19.681 50.685,16.401z"/>
  <path class="fil0" d="M186.852 59.766l-29.764 -7.265c0,0 -0.849,-7.181 -9.288,-10.132 -6.152,-2.156 -27.349,-14.339 -48.204,-10.036 7.885,12.002 25.425,41.585 24.038,65.248 -0.206,3.72 -3.164,7.564 -6.719,8.739 -3.418,1.138 -9.553,2.712 -17.009,2.712 -10.801,0 -24.368,-3.321 -36.591,-16.094 -0.239,4.059 -0.376,8.449 -0.4,13.199 -0.137,24.499 -31.257,47.727 -31.257,47.727l-4.144 8.59c8.459,18.317 78.498,19.615 94.962,30.977 12.573,-39.181 -1.61,-30.72 16.184,-73.817 0.385,-3.713 3.722,-6.842 7.416,-7.372 14.027,-2.043 45.282,-10.353 47.312,-44.118 0.233,-3.724 -2.911,-7.468 -6.536,-8.358zm-46.372 7.843c-2.099,0 -3.805,-1.698 -3.805,-3.799 0,-2.103 1.705,-3.8 3.805,-3.8 2.105,0 3.802,1.697 3.802,3.8 -0.008,2.098 -1.701,3.799 -3.802,3.799z"/>
  <g id="_2045319097488">
  </g>
  <g id="_2045319091888">
  </g>
  <g id="_2045319089904">
  </g>
  <g id="_2045319091152">
  </g>
  <g id="_2045930833232">
  </g>
  <g id="_2045930829456">
  </g>
  <g id="_2045930827760">
  </g>
  <g id="_2045930824560">
  </g>
  <g id="_2045930824016">
  </g>
  <g id="_2045930821808">
  </g>
  <g id="_2045930817904">
  </g>
  <g id="_2045930816784">
  </g>
  <g id="_2045930815824">
  </g>
  <g id="_2045930809648">
  </g>
  <g id="_2045930808432">
  </g>
 </g>
</svg>
