<?xml version="1.0" encoding="UTF-8"?>
<!DOCTYPE svg PUBLIC "-//W3C//DTD SVG 1.1//EN" "http://www.w3.org/Graphics/SVG/1.1/DTD/svg11.dtd">
<!-- Creator: CorelDRAW 2018 (64 Bit) -->
<svg xmlns="http://www.w3.org/2000/svg" xml:space="preserve" width="220px" height="220px" version="1.1" style="shape-rendering:geometricPrecision; text-rendering:geometricPrecision; image-rendering:optimizeQuality; fill-rule:evenodd; clip-rule:evenodd"
viewBox="0 0 220 220"
 xmlns:xlink="http://www.w3.org/1999/xlink">
 <defs>
  <style type="text/css">
   <![CDATA[
    .fil0 {fill:#6699FF}
    .fil4 {fill:#F5A5A6}
    .fil2 {fill:#F6A4A5}
    .fil7 {fill:#F6A7A8}
    .fil5 {fill:#F7CCC1}
    .fil3 {fill:#F8C9BF}
    .fil6 {fill:#F8CCC2}
    .fil8 {fill:#F8DACD}
    .fil9 {fill:#F9968C}
    .fil1 {fill:#FA0F0C}
   ]]>
  </style>
 </defs>
 <g id="Capa_x0020_1">
  <metadata id="CorelCorpID_0Corel-Layer"/>
  <path class="fil0" d="M89.43 94.564c-1.137,-1.283 -2.615,-2.466 -4.139,-3.573 -1.521,-1.105 -3.094,-2.173 -4.977,-3.032 -1.91,-0.871 -3.64,-1.414 -5.215,-2.503 -7.796,-5.391 -5.876,-30.824 -6.844,-40.321l-1.71 -14.014c-4.622,0.36 -4.724,20.872 -4.55,24.482 0.306,6.33 2.972,19.211 5.124,24.585 3.529,8.811 6.769,8.845 11.054,11.135 3.276,1.75 9.712,9.085 9.495,12.672 -0.204,3.369 -5.47,5.417 -9.544,5.417 -9.941,0 -18.487,-8.939 -27.439,-8.939 -12.461,0 -23.202,12.748 -29.436,-0.632 -1.118,-2.4 0.659,-5.28 2.209,-7.017 1.185,-1.328 9.562,-7.185 11.667,-8.683 3.225,-2.294 4.923,-2.81 4.923,-5.097 0,-12.166 -1.65,-15.765 -2.416,-26.198 -0.268,-3.661 -0.679,-22.26 -1.284,-23.9 -3.069,-0.287 -2.927,6.625 -2.927,8.785 0,6.477 0.122,13.805 0.897,20.074 0.806,6.52 1.52,12.898 1.357,19.697 -0.906,0.748 -2.084,1.304 -2.999,2.035 -5.057,4.035 -9.343,6.428 -12.816,11.536 -4.516,6.642 -4.06,6.797 -0.051,14.849 0.867,1.74 4.104,3.528 6.233,4.538 5.596,2.654 12.135,-0.787 16.675,-2.99 6.278,-3.044 10.793,-3.993 16.55,-0.012 3.307,2.287 9.703,6.732 14.849,6.732 6.241,0 9.061,-0.229 13.709,-3.246 1.461,-0.948 3.389,-2.306 3.533,-4.456 0.118,-1.764 1.093,-5.605 0.808,-6.621 -0.333,-1.182 -2.005,-4.478 -2.736,-5.303z"/>
  <path class="fil0" d="M46.913 181.737c0.701,-3.463 1.258,-11.038 1.093,-14.704 -0.218,-4.84 -1.133,-9.166 -2.087,-13.747 -1.243,-5.972 -2.459,-6.617 -6.51,-9.219 -3.157,-2.028 -6.588,-3.524 -10.164,-5.229 -10.166,-4.847 -5.265,-17.391 1.719,-17.995 6.126,-0.53 7.494,0.253 12.359,2.655 3.81,1.882 6.831,3.284 11.688,3.673 13.684,1.099 22.998,-12.82 28.397,-2.101 0.845,1.678 0.131,4.393 -0.372,6.184 -0.989,3.527 -3.866,6.645 -6.274,9.152 -2.593,2.702 -9.885,8.543 -10.518,9.213 -1.329,1.407 -0.11,8.458 0.077,10.396 0.485,5.042 0.404,9.935 0.817,14.986 0.276,3.388 3.285,9.378 5.962,9.239 0.502,-2.809 -0.452,-4.574 -0.797,-7.056 -0.38,-2.729 0.43,-18.694 0.413,-23.41 -0.026,-7.493 9.775,-15.227 13.112,-19.096 7.569,-8.774 0.578,-16.799 -7.724,-17.532 -5.024,-0.445 -8.555,1.878 -12.825,3.135 -5.491,1.617 -7.351,2.806 -13.339,0.793 -8.216,-2.76 -17.524,-5.929 -26.139,-1.414 -9.148,4.796 -10.107,13.945 -3.711,20.151 2.374,2.303 6.269,4.265 10.002,6.016 5.746,2.695 5.65,2.154 8.432,7.628 3.875,7.625 0.433,20.59 1.616,29.843l4.773 -1.561z"/>
  <path class="fil1" d="M105.419 159.496c0.32,-0.594 0.067,-0.164 0.438,-0.579l2.965 -3.689c0.42,0.885 0.629,1.944 1.144,2.988 0.466,0.943 1.164,1.888 1.472,2.63 -2.029,-1.12 -3.329,-1.436 -6.019,-1.35zm6.573 33.388c-3.835,-2.236 -7.998,-5.579 -10.939,-8.873 -1.593,-1.783 -2.605,-2.82 -3.857,-5.43 -1.645,-3.428 -1.134,-8.773 0.715,-11.874 1.114,-1.869 1.932,-2.657 3.32,-3.953 1.737,-1.62 2.709,-1.841 5.924,-1.528 2.417,0.235 5.319,2.274 6.998,3.681l3.772 3.509c1.95,2.131 2.954,4.141 4.142,6.942 0.91,2.145 0.643,3.809 -0.113,5.898 -0.742,2.054 -0.865,3.713 -1.431,5.745 -0.787,2.824 -6.734,6.931 -8.531,5.883zm7.209 -1.306c-0.545,1.754 -0.841,2.769 -1.013,4.743l-3.476 -1.964c1.059,-0.24 4.297,-2.549 4.489,-2.779zm5.174 -13.88c-0.15,-2.744 -1.764,-4.848 -2.643,-7.009 2.132,0.44 2.561,1.108 5.148,0.551 0.091,0.186 -0.153,1.936 0.307,2.995 0.488,1.124 1.284,1.741 1.728,2.455 -1.009,-0.07 -1.405,-0.249 -2.489,-0.02 -1.188,0.25 -1.267,0.67 -2.051,1.028zm22.069 -36.633c0.988,1.837 1.92,4.452 1.575,6.776 -0.427,2.89 -2.49,4.399 -3.859,6.323 -2.068,2.906 -4.513,5.237 -7.766,6.83 -1.842,0.902 -4.368,2.936 -5.757,4.496 -0.446,0.502 -0.615,0.456 -1.083,1.081 -1.849,2.468 -2.799,4.379 -8.063,2.146 -3.085,-1.308 -10.189,-9.838 -10.948,-13.958 -0.53,-2.882 1.504,-4.177 2.949,-5.312 9.431,-7.403 20.59,-9.21 32.952,-8.382zm-10.268 59.832c-4.413,-0.362 -10.119,-1.291 -14.249,-2.866 -2.348,-0.895 -2.425,-0.724 -1.743,-3.639 0.363,-1.55 0.916,-2.809 1.353,-4.281 0.453,-1.523 0.79,-3.104 1.192,-4.637 2.744,-10.463 5.504,-7.203 13.084,-4.559 2.413,0.841 6.776,2.54 7.187,4.344 0.264,1.159 -0.005,9.572 -0.309,10.856 -0.328,1.384 -0.983,2.742 -2.046,3.631 -1.169,0.977 -2.754,1.292 -4.469,1.151zm6.232 -39.826c4.938,-0.064 4.622,-0.077 7.944,2.863 0.608,0.538 1.746,2.215 2.331,3.199 1.276,2.145 1.313,3.87 0.477,6.441 -0.531,1.634 -2.693,3.211 -4.098,4.17 -2.974,2.027 -4.975,2.117 -9.176,1.931 -3.766,-0.168 -6.457,-1.505 -8.784,-3.487 -3.363,-2.866 -3.408,-4.021 0.131,-8.394l1.932 -2.194c0.574,-0.494 0.433,-0.638 1.436,-1.32l3.398 -2.143c1.107,-0.591 3.096,-1.048 4.409,-1.066zm2.155 35.043l1.552 5.228 -4.529 -0.019c0.028,-0.017 0.136,-0.085 0.097,-0.105 -0.037,-0.021 0.075,-0.104 0.099,-0.134 3.326,-4.027 1.363,-2.675 2.781,-4.97zm0.667 -14.891l-0.933 2.549 -1.327 -1.268c-0.402,-0.381 -1.006,-0.599 -1.466,-1.019l3.726 -0.262zm-3.341 -21.829c0.949,-1.435 1.355,-1.356 2.892,-3.285l1.132 -1.188c0.004,2.605 0.844,3.06 1.522,4.841 -2.091,-0.622 -3.281,-0.599 -5.546,-0.368zm6.509 -18.363l5.368 -0.056 -3.669 5.22c-0.217,0.259 -0.099,0.147 -0.329,0.346 -0.058,-2.283 -0.668,-3.544 -1.37,-5.51zm-0.521 60.416c-0.664,-4.867 -4.042,-8.403 -2.186,-16.13 0.866,-3.605 1.385,-4.132 3.812,-5.803 9.645,-6.642 15.25,-0.761 22.122,4.657l3.1 2.794c1.938,2.42 2.466,3.54 2.419,7.326 -8.614,5.791 -17.657,6.682 -29.267,7.156zm8.078 -60.281c3.424,0.212 12.804,2.524 14.931,4.957 1.066,1.218 1.429,3.698 1.095,5.438 -0.68,3.548 -2.295,6.515 -3.817,9.411 -1.084,2.061 -1.421,3.553 -2.815,5.016 -0.028,0.029 -0.067,0.072 -0.094,0.101 -0.039,0.041 -0.144,0.166 -0.183,0.208l-1.759 1.592c-5.594,5.177 -7.024,0.217 -10.966,-4.833 -4.057,-5.197 -7.004,-6.068 -1.988,-14.126l2.675 -3.99c0.968,-1.342 1.871,-2.59 2.921,-3.774zm4.586 -54.269l0 0zm-5.046 83.334c3.048,3.373 6.864,0.305 7.916,-0.194 -1.065,2.658 -1.784,2.332 -0.83,5.776 -3.657,-1.01 -4.189,-1.476 -8.302,-0.438 0.838,-1.971 0.886,-2.929 1.216,-5.144zm7.24 -79.392l-0.576 -0.786c-0.251,-0.444 -0.297,-0.5 -0.473,-1.032 0.039,0.042 0.091,0.095 0.118,0.127l0.537 0.731c0.352,0.536 0.313,0.339 0.394,0.96zm15.552 58.727l-4.905 3.762c0.037,-1.438 0.897,-2.023 0.128,-5.472l4.777 1.71zm-1.834 36.705c2.121,0.804 4.839,2.002 7.242,2.442 -0.255,0.529 -0.576,0.844 -1.023,1.19 -0.511,0.395 -0.682,0.604 -1.162,1.007 -0.806,0.679 -1.7,1.405 -2.696,2.066 0.037,-4.33 -2.041,-5.976 -2.361,-6.705zm16.907 -19.625c0.934,6.71 -2.028,13.444 -6.147,18.354 -0.431,0.513 -0.426,0.756 -0.928,1.24 -1.292,1.247 -1.541,1.169 -4.345,0.24 -4.866,-1.611 -9.948,-3.976 -13.571,-7.359 -2.923,-2.729 -5.704,-3.593 -3.857,-7.379 0.84,-1.721 1.883,-3.809 2.92,-5.487 0.491,-0.796 1.013,-1.498 1.589,-2.525l3.369 -7.187c1.618,-1.641 3.858,-3.174 5.676,-4.584 2.33,-1.807 2.041,-2.386 5.327,-0.596 4.934,2.687 9.161,9.497 9.967,15.283zm-30.625 -75.807l4.345 7.367c1.404,2.564 2.623,5.07 4.044,7.637 1.484,2.68 6.276,13.292 7.438,15.975 2.034,4.694 11.839,29.022 12.294,34.288 -0.497,-0.529 -0.761,-1.005 -1.243,-1.577 -2.765,-3.28 -2.028,-0.918 -3.361,-5.346 -0.91,-3.022 -1.792,-6.002 -2.775,-8.967 -3.533,-10.663 -11.73,-31.932 -16.927,-41.672 -0.604,-1.131 -3.751,-7.052 -3.815,-7.705zm-7.703 -50.595c-0.548,-0.548 -0.794,-0.682 -1.589,-1.172 -1.378,7.29 -3.028,15.366 -2.367,23.08 0.395,4.691 1.554,8.552 3.249,12.748 0.526,1.302 1.295,2.668 1.7,3.935l-0.615 0.186c1.527,2.855 2.808,5.768 4.304,8.367 7.573,13.154 14.463,29.758 19.833,44.064 1.174,3.127 2.17,6.27 3.265,9.464 0.896,2.614 2.537,7.213 2.985,9.822 -5.024,-2.563 -3.3,-1.368 -5.172,-7.564 -3.329,-11.019 -5.733,-18.058 -9.798,-28.98 -2.23,-5.992 -4.91,-12.596 -7.601,-18.21l-8.392 -17.359 -0.753 0.282c2.354,5.589 5.211,10.854 7.811,16.265 5.179,10.781 13.264,32.136 16.643,43.965 0.768,2.687 2.293,6.724 2.71,9.366l-3.244 -0.937c-1.711,-6.137 -3.101,-12.287 -5.089,-18.253 -4.299,-12.909 -6.811,-21.757 -12.299,-34.627l-7.217 -16.272 -0.755 0.266c2.112,5.462 4.748,10.619 7.035,15.987 3.781,8.872 9.66,24.988 12.262,34.27 1.635,5.834 3.91,12.333 5.084,18.291 -0.752,-0.137 -1.38,-0.439 -2.086,-0.709 -1.203,-0.459 -1.122,-0.274 -1.425,-1.542 -0.386,-1.617 -0.737,-3.229 -1.126,-4.84 -2.929,-12.118 -9.314,-34.273 -13.711,-45.237l-5.069 -12.607c-0.316,-0.804 -1.343,-3.617 -1.689,-4.13l-0.719 0.045c0.444,2.091 2.225,5.96 3.092,8.003 5.537,13.054 10.169,27.626 13.935,41.359 0.926,3.38 4.089,14.807 4.466,17.57l-3.245 -2.136 -3.207 -13.771c-1.47,-6.005 -2.935,-11.991 -4.599,-17.909 -2.341,-8.326 -5.108,-17.413 -8.205,-25.435l-2.829 -7.709c-0.271,-0.437 -0.046,-0.203 -0.441,-0.469l-0.249 0.016c-0.292,0.523 -0.274,-0.056 -0.072,0.841 0.044,0.19 0.301,0.822 0.377,1.029 3.536,9.557 7.214,19.502 9.865,29.339 1.471,5.455 3.067,10.966 4.38,16.538 0.782,3.319 3.639,14.533 3.89,17.046 -0.823,-0.21 -2.318,-0.646 -2.887,-1.214 -0.328,-0.408 -3.129,-14.761 -3.501,-16.672 -1.059,-5.437 -2.43,-11.13 -3.802,-16.513 -2.779,-10.905 -5.493,-19.658 -8.994,-30.046 -0.295,-0.878 -0.305,-0.738 -0.69,-0.963l-0.34 0.017c0.006,1.574 3.995,12.57 4.784,15.142 4.023,13.113 7.068,26.77 9.836,40.232 0.516,2.51 1.389,6.175 1.626,8.598l-2.78 -0.733c-0.552,-1.176 -2.479,-14.131 -2.926,-16.692 -0.938,-5.382 -2.033,-11.22 -3.299,-16.501 -1.27,-5.301 -2.448,-10.495 -3.767,-15.757l-4.099 -14.219c-0.471,-1.332 0.089,-0.689 -0.822,-0.811l-0.251 -0.045c0.269,1.965 3.458,11.799 4.323,15.167 4.413,17.177 7.077,30.848 9.868,48.627 -0.816,-0.151 -2.14,-0.224 -2.686,-0.638 -0.046,-0.067 -4.55,-29.535 -5.211,-33.002 -1.003,-5.267 -1.958,-10.558 -3.232,-15.713 -1.246,-5.041 -2.799,-10.256 -3.865,-15.224l-0.738 -0.115 -0.17 0.078c1.183,4.999 2.729,9.962 3.855,15.026 1.159,5.215 2.313,10.424 3.273,15.72 0.983,5.425 1.86,10.786 2.687,16.247 0.857,5.659 1.476,11.433 2.418,17.022l-2.75 -0.333c-2.431,-23.159 -3.883,-35.326 -8.604,-57.416l-1.563 -6.837c-0.275,-0.704 -0.017,-0.483 -0.745,-0.666l-0.282 0.052c1.16,5.114 2.3,10.229 3.457,15.372 1.191,5.292 1.872,10.647 2.8,16 0.946,5.452 1.547,11.148 2.229,16.651 0.651,5.247 1.577,11.61 1.809,16.868l-2.628 0.102c-0.764,-11.599 -1.849,-22.977 -3.122,-34.448 -0.602,-5.426 -1.371,-10.91 -2.324,-16.291 -0.556,-3.131 -2.325,-12.976 -3.078,-15.515l-0.262 -0.15 -0.562 0.449c1.338,4.586 2.205,10.73 3.105,15.496 2.813,14.893 4.055,35.337 5.392,50.49 -0.786,-0.004 -2.022,0.064 -2.554,-0.198 -0.45,-0.98 -0.81,-14.987 -0.968,-17.452 -0.373,-5.836 -0.76,-11.6 -1.224,-17.437 -0.442,-5.57 -1.093,-11.073 -1.874,-16.601 -0.692,-4.898 -1.526,-11.12 -2.707,-15.788l-0.232 -0.114 -0.567 0.407c1.85,7.42 3.921,24.333 4.546,32.217 0.454,5.723 0.834,11.394 1.177,17.138 0.35,5.861 0.417,12.012 0.915,17.803l-2.629 -0.107 -0.38 -17.848c-0.292,-11.613 -0.917,-22.91 -2.075,-34.447 -0.224,-2.24 -1.739,-14.736 -2.391,-16.007l-0.58 -0.094c-0.223,0.791 1.853,13.539 2.083,15.802 0.583,5.737 1.001,11.304 1.404,17.068 0.403,5.774 0.544,11.706 0.686,17.5 0.066,2.685 0.539,16.419 0.258,17.962l-2.534 -0.021c0.562,-18.252 0.359,-34.735 -0.851,-52.859 -0.073,-1.091 -1.399,-13.923 -1.759,-15.425 -0.262,-1.091 0.143,-0.572 -0.511,-0.732l-0.469 -0.077c0.492,5.528 1.548,10.919 1.915,16.53 0.889,13.588 0.86,21.755 1.018,35.065 0.065,5.456 0.138,12.043 -0.23,17.463l-2.515 0.045 0.659 -17.06c0.547,-10.528 0.508,-24.832 0.06,-35.421 -0.218,-5.166 -0.656,-12.093 -1.57,-17.105l-0.77 0.089c0.016,2.473 0.662,5.689 0.878,8.299 0.78,9.435 0.97,17.284 0.919,26.834 -0.062,11.573 -0.641,22.956 -1.068,34.484l-2.638 0.26c1.025,-11.113 1.836,-23.127 2.142,-34.315 0.277,-10.103 0.436,-17.074 -0.156,-27.143 -0.122,-2.057 -0.321,-6.756 -0.79,-8.596l-0.714 0.031c-0.15,0.919 0.527,6.752 0.666,8.374 1.204,13.985 -0.317,38.491 -1.35,53.139 -0.151,2.141 -0.275,6.681 -0.706,8.498 -0.483,0.295 -1.989,0.509 -2.555,0.608 0.339,-5.482 1.153,-11.282 1.654,-16.795 1.38,-15.159 2.577,-29.22 2.182,-44.457 -0.047,-1.834 -0.238,-7.736 -0.655,-9.19l-0.768 0.016c0.114,2.98 0.457,5.983 0.552,8.994 0.284,9.052 -0.041,18.2 -0.687,27.187 -0.624,8.703 -1.987,26.271 -3.205,34.408l-2.661 0.757c2.611,-18.611 7.139,-53.129 5.363,-70.981l-0.773 -0.069c-0.188,2.755 0.3,6.698 0.266,9.721 -0.171,15.113 -1.667,29.478 -3.516,44.471 -0.3,2.439 -1.746,15.784 -2.305,16.989 -0.278,0.291 0.035,0.092 -0.499,0.37l-2.158 0.704c0.073,-1.966 0.97,-6.22 1.339,-8.404 0.483,-2.86 0.925,-5.701 1.367,-8.572 2.201,-14.296 5.048,-35.206 4.917,-49.673l-0.021 -3.765c-0.119,-1.414 0.09,-0.791 -0.542,-1.035 -0.553,0.306 -0.396,-0.689 -0.321,2.062 0.023,0.846 0.011,1.711 0.016,2.56 0.059,10.542 -1.099,22.116 -2.465,32.499 -0.194,1.476 -4.784,34.225 -5.331,34.81l-2.778 1.28 3.32 -17.373c1.162,-5.676 2.05,-11.77 2.968,-17.588 0.949,-6.016 1.726,-12.076 2.391,-18.083 0.338,-3.056 1.348,-14.89 1.177,-18.311 -0.068,-1.358 0.166,-0.749 -0.533,-0.962 -0.638,0.045 -0.367,0.788 -0.378,2.392 -0.126,18.785 -4.145,37.489 -7.138,55.959l-2.62 13.832c-0.237,0.955 -2.256,2.064 -3.148,2.43 0.311,-2.584 1.319,-5.959 1.877,-8.641 0.61,-2.937 1.36,-5.813 1.921,-8.765 2.425,-12.746 4.891,-23.297 6.575,-36.466 0.726,-5.682 2.081,-14.183 1.741,-19.72l-0.811 0.008c-1.138,23.353 -6.206,46.658 -11.317,69.501 -0.193,0.863 -0.819,4.173 -1.079,4.734 -0.203,0.437 -2.922,2.433 -3.349,2.654 1.4,-5.986 3.083,-12.057 4.549,-18.073 3.664,-15.046 7.252,-31.742 9.325,-47.126 0.345,-2.56 1.184,-8.096 0.957,-10.462l-0.813 0c-0.117,6.827 -1.616,15.959 -2.904,22.808 -1.38,7.339 -2.875,14.439 -4.396,21.643 -2.216,10.503 -4.975,21.004 -7.652,31.385 -0.709,2.749 -0.833,2.48 -2.075,4.373l-3.024 3.703 2.852 -9.831c4.02,-13.066 10.363,-37.732 12.807,-50.742 1.017,-5.418 3.329,-16.943 3.448,-21.938l-0.47 -0.018c-0.625,0.249 -0.804,4.347 -1.034,5.907 -3.655,24.765 -11.472,53.166 -18.696,77.26 -0.246,0.819 -0.166,0.676 -0.685,1.085 -0.349,0.275 -0.695,0.487 -1.042,0.735 -0.358,0.254 -0.696,0.487 -1.021,0.761 -0.533,0.447 -0.37,0.424 -0.931,0.746 0.356,-1.687 1.343,-4.053 1.901,-5.792 8.155,-25.388 17.69,-55.615 20.802,-81.836 0.609,-5.139 0.504,-10.151 0.431,-15.331 -0.122,-9.516 -3.112,-21.886 -6.67,-30.879 -0.836,-2.113 -0.387,-2.236 -2.766,-2.717 0.24,1.241 1.147,3.06 1.62,4.309 9.587,25.26 6.855,47.333 0.277,73.285 -4.929,19.445 -11.255,42.056 -18.139,61.048 -0.514,1.419 -1.105,2.7 -1.584,4.07 -0.555,1.584 -0.589,3.521 -0.996,4.737l0.08 3.713c0.102,0.17 0.078,0.092 0.225,0.472 0.936,2.419 0.995,3.351 3.108,6.02 0.7,0.884 1.456,1.963 2.17,2.565l3.705 3.569c0.527,0.422 0.68,0.486 1.323,1.035 5.688,4.854 15.104,9.845 22.505,11.308 2.736,0.541 5.461,0.932 8.296,1.205 1.667,0.161 8.112,0.347 9,0.613l9.597 -0.206c0.87,-0.424 6.618,-0.887 8.261,-1.202 2.578,-0.494 4.897,-1.106 7.263,-1.925 7.934,-2.745 15.668,-9.364 20.458,-16.243 1.123,-1.612 2.274,-3.716 3.139,-5.859 1.628,-4.034 1.236,-5.421 1.798,-7.108l-0.087 -4.075c-0.027,-0.05 -0.052,-0.119 -0.067,-0.159 -0.014,-0.039 -0.046,-0.11 -0.063,-0.159l-2.065 -8.548c-0.717,-2.839 -1.544,-5.616 -2.391,-8.358 -3.751,-12.156 -12.75,-34.771 -18.773,-45.578 -2.638,-4.735 -4.897,-9.348 -7.576,-13.816 -2.722,-4.541 -5.216,-8.621 -7.639,-13.746 -2.483,-5.252 -4.021,-10.929 -4.102,-17.457 -0.039,-3.068 1.335,-16.622 2.432,-18.546z"/>
  <path class="fil2" d="M169.665 169.96c1.185,2.484 -2.759,3.746 -3.49,1.587 -0.844,-2.49 2.508,-3.648 3.49,-1.587zm1.266 5.759c1.169,2.328 -2.58,3.827 -3.471,1.522 -0.898,-2.323 2.327,-3.801 3.471,-1.522zm3.367 -9.372c1.153,2.479 -2.717,3.779 -3.495,1.573 -0.867,-2.457 2.486,-3.744 3.495,-1.573zm0.674 5.157c1.213,2.444 -2.617,3.722 -3.47,1.518 -0.908,-2.345 2.336,-3.805 3.47,-1.518zm0.55 7.487c0.945,2.216 -2.607,3.689 -3.482,1.506 -0.998,-2.493 2.435,-3.964 3.482,-1.506zm-0.206 -18.289c1.208,2.402 -2.656,3.612 -3.475,1.504 -0.93,-2.393 2.295,-3.851 3.475,-1.504zm4.309 16.029c0.65,2.347 -3.134,3.36 -3.683,0.926 -0.592,-2.624 3.018,-3.331 3.683,-0.926zm-0.634 -20.272c0.867,2.646 -2.819,3.28 -3.561,1.376 -0.978,-2.509 2.758,-3.828 3.561,-1.376zm0.897 14.509c0.666,1.03 -0.015,2.296 -0.778,2.616 -1.031,0.434 -2.094,0.083 -2.565,-0.79 -1.151,-2.133 1.872,-4.101 3.343,-1.826zm0.026 -6.015c1.135,2.324 -2.363,3.741 -3.38,1.61 -1.098,-2.297 2.263,-3.897 3.38,-1.61zm1.744 16.257c1.388,2.038 -2.026,4.106 -3.322,1.776 -0.579,-1.04 0.056,-2.178 0.697,-2.546 1.216,-0.696 2.056,-0.067 2.625,0.77zm1.15 -20.881c0.688,2.482 -3,3.205 -3.636,1.084 -0.769,-2.561 3.02,-3.312 3.636,-1.084zm1.896 15.514c1.126,2.424 -2.729,3.574 -3.487,1.512 -0.935,-2.548 2.396,-3.863 3.487,-1.512zm0.521 -5.198c0.798,2.564 -2.896,3.382 -3.612,1.238 -0.846,-2.535 2.916,-3.475 3.612,-1.238zm-0.406 -16.662c1.276,2.084 -2.239,3.916 -3.379,1.631 -1.088,-2.183 1.981,-3.914 3.379,-1.631zm1.042 10.583c0.85,2.582 -2.769,3.407 -3.556,1.382 -0.973,-2.503 2.755,-3.819 3.556,-1.382zm1.32 16.739c0.968,2.232 -2.627,3.696 -3.483,1.505 -0.974,-2.489 2.422,-3.953 3.483,-1.505zm1.31 -22.739c0.857,1.542 -0.825,3.382 -2.502,2.568 -3.115,-1.511 0.81,-5.612 2.502,-2.568zm1.578 17.462c0.991,2.505 -2.621,3.615 -3.493,1.576 -1.112,-2.597 2.618,-3.789 3.493,-1.576zm1.433 -5.526c1.361,2.222 -2.187,3.923 -3.326,1.821 -1.256,-2.318 2.043,-3.916 3.326,-1.821zm0.459 -5.647c0.646,2.458 -2.968,3.224 -3.635,1.081 -0.807,-2.592 3.038,-3.351 3.635,-1.081zm1.399 1.791c-0.806,-5.786 -5.033,-12.596 -9.967,-15.283 -3.286,-1.79 -2.997,-1.211 -5.327,0.596 -1.818,1.41 -4.058,2.943 -5.676,4.584l-3.369 7.187c-0.576,1.027 -1.098,1.729 -1.589,2.525 -1.037,1.678 -2.08,3.766 -2.92,5.487 -1.847,3.786 0.934,4.65 3.857,7.379 3.623,3.383 8.705,5.748 13.571,7.359 2.804,0.929 3.053,1.007 4.345,-0.24 0.502,-0.484 0.497,-0.727 0.928,-1.24 4.119,-4.91 7.081,-11.644 6.147,-18.354z"/>
  <path class="fil2" d="M113.715 153.948c2.719,-0.705 3.36,3.214 1.036,3.681 -2.75,0.553 -3.196,-3.121 -1.036,-3.681zm2.453 -4.919c2.789,-0.46 3.121,3.53 0.626,3.73 -2.585,0.207 -2.861,-3.361 -0.626,-3.73zm0.396 9.253c2.593,-0.334 3,3.457 0.625,3.737 -1.09,0.129 -1.968,-0.571 -2.131,-1.488 -0.195,-1.097 0.501,-2.12 1.506,-2.249zm2.257 -4.877c2.747,-0.711 3.374,3.214 1.013,3.682 -2.579,0.511 -3.201,-3.117 -1.013,-3.682zm1.179 9.08c2.848,-0.482 3.016,3.28 0.851,3.718 -1.192,0.241 -2.086,-0.51 -2.279,-1.468 -0.217,-1.072 0.531,-2.099 1.428,-2.25zm0.524 -12.272c-2.115,-0.987 -0.91,-4.552 1.736,-3.427 2.066,0.879 0.728,4.578 -1.736,3.427zm1.735 7.505c1.112,-0.148 2.039,0.554 2.209,1.492 0.219,1.208 -0.645,2.112 -1.543,2.258 -2.603,0.426 -2.892,-3.454 -0.666,-3.75zm1.515 -2.786c-2.401,-1.19 -0.888,-4.517 1.399,-3.565 2.317,0.966 0.803,4.656 -1.399,3.565zm0.681 13.37c-2.029,-0.845 -1.142,-4.534 1.401,-3.564 2.159,0.824 1.15,4.627 -1.401,3.564zm1.26 -23.86c2.642,-0.801 3.518,3.158 1.022,3.661 -2.508,0.505 -3.074,-3.04 -1.022,-3.661zm0.923 15.506c2.695,-0.748 3.417,3.248 1.026,3.681 -2.57,0.464 -3.161,-3.089 -1.026,-3.681zm0.875 -5.047c1.087,-0.103 1.966,0.398 2.165,1.458 0.122,0.651 0.022,1.104 -0.326,1.545 -0.279,0.353 -0.669,0.655 -1.221,0.738 -2.678,0.404 -2.941,-3.52 -0.618,-3.741zm0.927 -2.704c-2.019,-0.847 -0.879,-4.634 1.742,-3.424 1.899,0.877 0.8,4.49 -1.742,3.424zm2.765 9.642c-2.228,-0.941 -0.804,-4.678 1.71,-3.444 1.944,0.954 0.782,4.497 -1.71,3.444zm0.185 -18.918c2.596,-0.473 3.139,3.275 0.841,3.722 -1.088,0.212 -2.074,-0.531 -2.252,-1.449 -0.207,-1.059 0.495,-2.107 1.411,-2.273zm0.605 9.889c2.759,-0.311 2.898,3.431 0.613,3.74 -2.49,0.337 -2.897,-3.483 -0.613,-3.74zm2.255 -5.005c2.607,-0.668 3.445,3.121 1.02,3.663 -2.735,0.613 -3.196,-3.104 -1.02,-3.663zm1.545 7.817c2.706,-0.78 3.451,3.254 1.027,3.677 -2.52,0.439 -3.103,-3.079 -1.027,-3.677zm0.371 -10.273c-2.096,-0.779 -1.054,-4.574 1.582,-3.484 1.862,0.77 1.028,4.455 -1.582,3.484zm2.558 9.181c-2.124,-0.965 -0.884,-4.567 1.75,-3.425 2.06,0.892 0.636,4.509 -1.75,3.425zm0.483 -5.053c-2.348,-1.107 -1.069,-4.567 1.402,-3.563 0.926,0.376 1.471,1.444 1.016,2.536 -0.267,0.643 -1.392,1.511 -2.418,1.027zm6.245 -5.881c0.814,2.508 -2.94,3.349 -3.615,1.208 -0.815,-2.584 2.884,-3.462 3.615,-1.208zm0.642 4.955c0.314,0.661 0.484,0.729 0.135,1.596 -0.603,1.497 -2.727,1.644 -3.442,0.155 -0.713,-1.488 0.58,-3.198 2.375,-2.685 0.856,0.245 0.687,0.42 0.932,0.934zm0.35 -7.486c-12.362,-0.828 -23.521,0.979 -32.952,8.382 -1.445,1.135 -3.479,2.43 -2.949,5.312 0.759,4.12 7.863,12.65 10.948,13.958 5.264,2.233 6.214,0.322 8.063,-2.146 0.468,-0.625 0.637,-0.579 1.083,-1.081 1.389,-1.56 3.915,-3.594 5.757,-4.496 3.253,-1.593 5.698,-3.924 7.766,-6.83 1.369,-1.924 3.432,-3.433 3.859,-6.323 0.345,-2.324 -0.587,-4.939 -1.575,-6.776z"/>
  <path class="fil3" d="M126.92 72.722c0.34,5.537 -1.015,14.038 -1.741,19.72 -1.684,13.169 -4.15,23.72 -6.575,36.466 -0.561,2.952 -1.311,5.828 -1.921,8.765 -0.558,2.682 -1.566,6.057 -1.877,8.641 0.892,-0.366 2.911,-1.475 3.148,-2.43l2.62 -13.832c2.993,-18.47 7.012,-37.174 7.138,-55.959 0.011,-1.604 -0.26,-2.347 0.378,-2.392 0.699,0.213 0.465,-0.396 0.533,0.962 0.171,3.421 -0.839,15.255 -1.177,18.311 -0.665,6.007 -1.442,12.067 -2.391,18.083 -0.918,5.818 -1.806,11.912 -2.968,17.588l-3.32 17.373 2.778 -1.28c0.547,-0.585 5.137,-33.334 5.331,-34.81 1.366,-10.383 2.524,-21.957 2.465,-32.499 -0.005,-0.849 0.007,-1.714 -0.016,-2.56 -0.075,-2.751 -0.232,-1.756 0.321,-2.062 0.632,0.244 0.423,-0.379 0.542,1.035l0.021 3.765c0.131,14.467 -2.716,35.377 -4.917,49.673 -0.442,2.871 -0.884,5.712 -1.367,8.572 -0.369,2.184 -1.266,6.438 -1.339,8.404l2.158 -0.704c0.534,-0.278 0.221,-0.079 0.499,-0.37 0.559,-1.205 2.005,-14.55 2.305,-16.989 1.849,-14.993 3.345,-29.358 3.516,-44.471 0.034,-3.023 -0.454,-6.966 -0.266,-9.721l-1.197 -11.102c-1.032,-7.417 -2.439,-13.268 -4.064,-20.53 -0.389,-1.735 -0.768,-3.279 -1.092,-5.079 -0.542,-3.02 -0.427,-3.964 -1.648,-4.405 0.432,3.252 1.659,6.803 2.379,10.061 1.863,8.417 2.744,11.498 3.922,20.444l0.941 11.104 -0.79 0.017c0.144,-2.888 -0.523,-8.322 -0.912,-11.268 -1.378,-10.425 -3.918,-20.576 -6.415,-30.78l-0.771 -0.392c-0.013,1.452 2.122,8.173 2.607,10.151 1.901,7.749 3.267,13.378 4.088,21.489 0.191,1.889 0.398,4.03 0.466,5.916 0.037,1.044 0.083,2.083 0.122,3.129 0.106,2.855 0.425,2.461 -0.347,2.769 -0.532,-0.302 -0.352,-0.479 -0.379,-1.361 -0.514,-16.57 -2.842,-24.894 -7.036,-40.579 -0.239,-0.895 -0.193,-1.755 -1.011,-2.188 -0.217,0.345 -0.309,-0.554 -0.109,0.696 0,0.006 0.201,0.591 0.205,0.602 0.157,0.462 0.24,0.808 0.361,1.242 0.264,0.952 0.524,1.673 0.772,2.614 0.45,1.716 1.054,3.405 1.478,5.105 1.853,7.428 3.52,14.488 4.089,22.276l0.463 12.79z"/>
  <path class="fil2" d="M99.006 174.778c2.796,-0.538 3.133,3.254 0.849,3.703 -2.619,0.516 -3.124,-3.265 -0.849,-3.703zm-0.039 -1.84c-2.06,-0.831 -0.783,-4.706 1.732,-3.443 1.842,0.926 0.724,4.433 -1.732,3.443zm2.77 -8.496c2.849,-0.463 2.987,3.275 0.849,3.721 -1.188,0.247 -2.092,-0.495 -2.286,-1.455 -0.22,-1.089 0.513,-2.116 1.437,-2.266zm1.647 12.527c2.768,-0.676 3.31,3.194 1.016,3.683 -2.642,0.563 -3.265,-3.133 -1.016,-3.683zm0.686 -4.687c2.578,-0.827 3.389,2.881 1.189,3.61 -2.456,0.815 -3.417,-2.895 -1.189,-3.61zm0.794 9.478c2.874,-0.265 2.823,3.402 0.616,3.74 -2.565,0.393 -2.972,-3.523 -0.616,-3.74zm2.685 -13.268c1.047,2.362 -2.392,3.47 -3.38,1.6 -1.16,-2.199 2.268,-4.108 3.38,-1.6zm1.08 -5.364c1.283,2.063 -2.284,3.887 -3.381,1.614 -1.066,-2.211 1.959,-3.899 3.381,-1.614zm2.708 23.326c0.652,2.432 -2.964,3.261 -3.635,1.087 -0.792,-2.566 3.033,-3.333 3.635,-1.087zm-0.579 -8.455c0.857,2.453 -2.823,3.393 -3.561,1.379 -0.912,-2.492 2.723,-3.78 3.561,-1.379zm1.093 -11.208c1.225,2.495 -2.376,3.761 -3.322,1.763 -0.598,-1.261 0.304,-3.239 2.373,-2.669 0.862,0.238 0.694,0.387 0.949,0.906zm0.96 5.422c1.058,2.469 -2.679,3.663 -3.499,1.562 -1.007,-2.584 2.519,-3.849 3.499,-1.562zm1.576 9.654c0.284,1.196 -0.319,2.064 -1.282,2.286 -1.149,0.265 -2.056,-0.325 -2.355,-1.206 -0.849,-2.502 3.029,-3.647 3.637,-1.08zm1.495 -5.246c1.13,2.512 -2.678,3.85 -3.492,1.587 -0.879,-2.443 2.535,-3.714 3.492,-1.587zm0.61 11.261c1.088,2.508 -2.693,3.668 -3.497,1.559 -0.979,-2.567 2.514,-3.824 3.497,-1.559zm0.133 -19.211c1.241,2.38 -2.514,3.526 -3.457,1.471 -0.976,-2.127 2.145,-3.986 3.457,-1.471zm2.706 14.633c0.658,1.131 -0.156,2.279 -0.981,2.603 -0.496,0.194 -1.048,0.183 -1.527,-0.045 -3.057,-1.458 0.721,-5.633 2.508,-2.558zm0.005 -10.086c1.258,2.3 -2.433,3.947 -3.415,1.714 -1.127,-2.56 2.338,-3.682 3.415,-1.714zm2.098 5.689c0.366,1.022 -0.415,2.067 -1.127,2.334 -1.135,0.427 -2.175,-0.263 -2.483,-1.106 -0.944,-2.586 2.796,-3.504 3.61,-1.228zm-9.442 13.977c1.797,1.048 7.744,-3.059 8.531,-5.883 0.566,-2.032 0.689,-3.691 1.431,-5.745 0.756,-2.089 1.023,-3.753 0.113,-5.898 -1.188,-2.801 -2.192,-4.811 -4.142,-6.942l-3.772 -3.509c-1.679,-1.407 -4.581,-3.446 -6.998,-3.681 -3.215,-0.313 -4.187,-0.092 -5.924,1.528 -1.388,1.296 -2.206,2.084 -3.32,3.953 -1.849,3.101 -2.36,8.446 -0.715,11.874 1.252,2.61 2.264,3.647 3.857,5.43 2.941,3.294 7.104,6.637 10.939,8.873z"/>
  <path class="fil2" d="M147.857 185.691c2.737,-0.471 3.097,3.27 0.848,3.723 -2.686,0.542 -3.073,-3.341 -0.848,-3.723zm0.591 9.242c-2.131,-0.932 -0.932,-4.659 1.56,-3.5 2.136,0.993 0.78,4.523 -1.56,3.5zm1.01 1.175c2.765,-0.22 2.874,3.538 0.436,3.763 -2.576,0.237 -2.738,-3.579 -0.436,-3.763zm-0.25 -11.642c-2.214,-0.951 -0.813,-4.636 1.729,-3.448 1.954,0.913 0.788,4.529 -1.729,3.448zm3.844 4.859c2.745,-0.814 3.425,3.165 1.025,3.666 -2.544,0.53 -3.066,-3.061 -1.025,-3.666zm0.531 -2.748c-2.185,-1.131 -1.056,-4.559 1.398,-3.565 2.349,0.951 0.795,4.701 -1.398,3.565zm1.181 -9.209c2.705,-0.466 3.065,3.456 0.629,3.716 -2.604,0.278 -2.889,-3.327 -0.629,-3.716zm0.604 18.991c2.812,-0.451 2.994,3.265 0.849,3.722 -1.194,0.254 -2.103,-0.473 -2.297,-1.451 -0.213,-1.082 0.512,-2.121 1.448,-2.271zm4.094 -3.819c0.784,1.507 -0.855,3.275 -2.585,2.41 -2.941,-1.471 0.848,-5.75 2.585,-2.41zm0.932 -5.018c0.733,2.309 -2.998,3.554 -3.64,1.114 -0.67,-2.547 2.865,-3.558 3.64,-1.114zm0.577 -5.807c1.058,2.207 -2.291,3.831 -3.382,1.605 -1.073,-2.188 2.213,-4.045 3.382,-1.605zm2.562 14.588c0.855,2.465 -2.697,3.537 -3.555,1.403 -0.508,-1.261 0.28,-2.298 1.203,-2.57 1.037,-0.307 2.053,0.305 2.352,1.167zm1.415 -5.698c0.884,1.513 -0.887,3.316 -2.507,2.551 -3.059,-1.444 0.689,-5.663 2.507,-2.551zm0.296 -4.701c0.796,2.51 -3.055,3.316 -3.637,1.087 -0.675,-2.584 2.917,-3.355 3.637,-1.087zm0.526 -5.248c1.156,2.5 -2.744,3.741 -3.491,1.597 -0.877,-2.515 2.607,-3.509 3.491,-1.597zm3.463 15.127c0.812,2.575 -2.902,3.407 -3.613,1.243 -0.83,-2.524 2.911,-3.47 3.613,-1.243zm0.822 -6.067c0.946,2.337 -2.662,3.611 -3.504,1.543 -1.014,-2.495 2.507,-4.007 3.504,-1.543zm0.069 -5.275c0.733,2.384 -2.766,3.453 -3.578,1.2 -0.889,-2.464 2.795,-3.743 3.578,-1.2zm4.163 3.27c1.212,2.459 -2.396,3.748 -3.309,1.754 -0.8,-1.748 0.805,-3.124 2.369,-2.68 0.874,0.249 0.687,0.413 0.94,0.926zm0.212 5.556c1.254,2.461 -2.587,3.847 -3.435,1.742 -1.012,-2.512 2.463,-3.647 3.435,-1.742zm-26.622 8.18c11.61,-0.474 20.653,-1.365 29.267,-7.156 0.047,-3.786 -0.481,-4.906 -2.419,-7.326l-3.1 -2.794c-6.872,-5.418 -12.477,-11.299 -22.122,-4.657 -2.427,1.671 -2.946,2.198 -3.812,5.803 -1.856,7.727 1.522,11.263 2.186,16.13z"/>
  <path class="fil4" d="M150.53 154.343c2.737,-0.476 3.106,3.273 0.851,3.722 -1.189,0.237 -2.08,-0.518 -2.276,-1.467 -0.121,-0.584 0.003,-1.039 0.292,-1.456 0.253,-0.364 0.592,-0.705 1.133,-0.799zm1.275 -4.781c2.78,-0.711 3.344,3.215 1.022,3.685 -2.639,0.534 -3.234,-3.119 -1.022,-3.685zm1.953 8.447c2.677,-0.732 3.415,3.17 1.021,3.669 -2.644,0.55 -3.157,-3.084 -1.021,-3.669zm0.396 -9.067c-2.201,-0.93 -0.83,-4.667 1.716,-3.447 1.95,0.934 0.795,4.508 -1.716,3.447zm2.25 13.15c2.698,-0.756 3.431,3.182 1.024,3.666 -2.63,0.528 -3.145,-3.072 -1.024,-3.666zm-0.198 -9.237c2.768,-0.351 2.926,3.404 0.667,3.755 -2.592,0.403 -2.905,-3.472 -0.667,-3.755zm2.451 -5.022c2.656,-0.572 3.22,3.142 1.014,3.686 -2.72,0.67 -3.289,-3.196 -1.014,-3.686zm-0.434 -1.903c-2.384,-1.134 -1.002,-4.525 1.394,-3.564 2.461,0.988 0.696,4.559 -1.394,3.564zm0.925 15.629c-2.139,-1.098 -0.731,-4.562 1.755,-3.417 2.141,0.987 0.608,4.629 -1.755,3.417zm1.429 2.398c2.85,-0.466 3,3.271 0.846,3.726 -2.675,0.565 -3.1,-3.357 -0.846,-3.726zm1.024 -7.331c-2.05,-0.836 -0.794,-4.7 1.746,-3.447 1.841,0.908 0.721,4.454 -1.746,3.447zm1.484 -13.383c2.667,-0.52 3.128,3.33 0.853,3.727 -2.503,0.436 -3.184,-3.272 -0.853,-3.727zm0.561 16.931c2.432,-0.807 3.56,2.862 1.186,3.612 -2.416,0.765 -3.473,-2.853 -1.186,-3.612zm0.144 -11.61c2.827,-0.396 2.959,3.435 0.67,3.753 -1.231,0.171 -2.062,-0.528 -2.184,-1.645 -0.116,-1.073 0.549,-1.972 1.514,-2.108zm2.912 7.272c2.726,-0.172 2.891,3.559 0.446,3.755 -2.709,0.216 -2.712,-3.611 -0.446,-3.755zm1.663 -5.032c2.572,-0.329 3.06,3.407 0.663,3.759 -2.613,0.384 -2.923,-3.47 -0.663,-3.759zm-0.108 -5.049c2.75,-0.179 2.903,3.537 0.443,3.758 -2.611,0.234 -2.747,-3.608 -0.443,-3.758zm-12.302 -4.589c-1.05,1.184 -1.953,2.432 -2.921,3.774l-2.675 3.99c-5.016,8.058 -2.069,8.929 1.988,14.126 3.942,5.05 5.372,10.01 10.966,4.833l1.759 -1.592c0.039,-0.042 0.144,-0.167 0.183,-0.208 0.027,-0.029 0.066,-0.072 0.094,-0.101 1.394,-1.463 1.731,-2.955 2.815,-5.016 1.522,-2.896 3.137,-5.863 3.817,-9.411 0.334,-1.74 -0.029,-4.22 -1.095,-5.438 -2.127,-2.433 -11.507,-4.745 -14.931,-4.957z"/>
  <path class="fil4" d="M124.9 193.982c0.997,2.485 -2.666,3.607 -3.501,1.569 -1.049,-2.56 2.572,-3.88 3.501,-1.569zm1.388 -5.248c1.23,2.475 -2.401,3.762 -3.31,1.757 -0.676,-1.492 0.544,-3.193 2.365,-2.673 0.858,0.245 0.69,0.401 0.945,0.916zm1.295 -4.12c0.768,2.369 -2.837,3.34 -3.579,1.18 -0.42,-1.221 0.208,-2.216 1.104,-2.476 1.459,-0.424 2.14,0.263 2.475,1.296zm2.489 11.015c0.732,2.277 -2.915,3.51 -3.625,1.255 -0.84,-2.665 2.91,-3.479 3.625,-1.255zm0.937 -15.036c1.288,2.48 -2.445,3.724 -3.306,1.748 -0.672,-1.546 0.524,-3.215 2.365,-2.672 0.9,0.265 0.681,0.423 0.941,0.924zm1.064 10.382c0.743,2.42 -2.938,3.52 -3.623,1.053 -0.343,-1.232 0.301,-2.134 1.277,-2.358 1.396,-0.321 2.034,0.29 2.346,1.305zm-0.104 -5.122c0.729,2.506 -3.07,3.29 -3.64,1.075 -0.651,-2.529 2.929,-3.519 3.64,-1.075zm2.949 10.607c0.97,2.156 -2.678,3.693 -3.514,1.33 -0.77,-2.176 2.32,-3.98 3.514,-1.33zm1.896 -14.052c1.023,3.557 -5.271,2.684 -3.456,-0.43 0.202,-0.347 0.622,-0.778 1.085,-0.9 0.576,-0.15 1.145,-0.037 1.59,0.22 0.598,0.347 0.606,0.504 0.781,1.11zm0.45 9.751c0.733,2.279 -3,3.551 -3.641,1.112 -0.673,-2.557 2.853,-3.564 3.641,-1.112zm-0.105 -5.376c1.311,2.478 -2.613,3.845 -3.432,1.743 -1.04,-2.67 2.414,-3.669 3.432,-1.743zm2.882 9.731c1.161,2.369 -2.209,3.635 -3.311,1.747 -1.313,-2.249 2.1,-4.215 3.311,-1.747zm1.859 -5.368c1.273,2.364 -2.191,3.884 -3.312,1.755 -1.132,-2.149 2.016,-4.16 3.312,-1.755zm0.463 -5.46c0.716,2.298 -2.944,3.444 -3.627,1.027 -0.319,-1.13 0.392,-2.188 1.284,-2.409 1.434,-0.354 2.035,0.392 2.343,1.382zm-6.187 15.211c1.715,0.141 3.3,-0.174 4.469,-1.151 1.063,-0.889 1.718,-2.247 2.046,-3.631 0.304,-1.284 0.573,-9.697 0.309,-10.856 -0.411,-1.804 -4.774,-3.503 -7.187,-4.344 -7.58,-2.644 -10.34,-5.904 -13.084,4.559 -0.402,1.533 -0.739,3.114 -1.192,4.637 -0.437,1.472 -0.99,2.731 -1.353,4.281 -0.682,2.915 -0.605,2.744 1.743,3.639 4.13,1.575 9.836,2.504 14.249,2.866z"/>
  <path class="fil2" d="M131.788 170.648c2.654,-0.567 3.21,3.134 1.01,3.682 -2.717,0.676 -3.292,-3.196 -1.01,-3.682zm3.234 -5.182c2.692,-0.739 3.404,3.241 1.021,3.683 -2.528,0.47 -3.117,-3.107 -1.021,-3.683zm1.501 5.688c2.615,-0.835 3.408,3.043 1.199,3.64 -2.552,0.69 -3.316,-2.964 -1.199,-3.64zm5.486 4.801c0.841,2.518 -2.958,3.361 -3.615,1.205 -0.784,-2.571 2.867,-3.447 3.615,-1.205zm-2.229 -8.896c2.736,-0.489 3.054,3.323 0.797,3.708 -2.741,0.469 -3.054,-3.304 -0.797,-3.708zm3.343 -3.322c0.711,2.49 -3.01,3.224 -3.637,1.086 -0.331,-1.124 0.384,-2.163 1.244,-2.398 1.138,-0.311 2.135,0.41 2.393,1.312zm3.473 6.395c0.667,1.009 -0.033,2.278 -0.768,2.594 -1.023,0.438 -2.165,-0.038 -2.581,-0.775 -1.158,-2.051 1.797,-4.165 3.349,-1.819zm0.88 5.556c1.307,2.385 -2.527,3.578 -3.455,1.47 -0.886,-2.013 2.048,-4.038 3.455,-1.47zm0.792 -11.932c0.993,2.498 -2.662,3.603 -3.499,1.57 -1.069,-2.598 2.595,-3.843 3.499,-1.57zm3.013 4.147c0.282,1.184 -0.328,2.049 -1.276,2.273 -0.635,0.15 -1.121,0.099 -1.58,-0.209 -0.246,-0.165 -0.67,-0.658 -0.782,-0.991 -0.856,-2.534 3.027,-3.635 3.638,-1.073zm0.248 4.563c1.055,2.389 -2.314,3.607 -3.381,1.601 -0.889,-1.671 0.929,-3.338 2.505,-2.611 0.498,0.23 0.709,0.632 0.876,1.01zm-9.121 -11.395c-1.313,0.018 -3.302,0.475 -4.409,1.066l-3.398 2.143c-1.003,0.682 -0.862,0.826 -1.436,1.32l-1.932 2.194c-3.539,4.373 -3.494,5.528 -0.131,8.394 2.327,1.982 5.018,3.319 8.784,3.487 4.201,0.186 6.202,0.096 9.176,-1.931 1.405,-0.959 3.567,-2.536 4.098,-4.17 0.836,-2.571 0.799,-4.296 -0.477,-6.441 -0.585,-0.984 -1.723,-2.661 -2.331,-3.199 -3.322,-2.94 -3.006,-2.927 -7.944,-2.863z"/>
  <path class="fil3" d="M123.438 75.359c-0.119,4.995 -2.431,16.52 -3.448,21.938 -2.444,13.01 -8.787,37.676 -12.807,50.742l-2.852 9.831 3.024 -3.703c1.242,-1.893 1.366,-1.624 2.075,-4.373 2.677,-10.381 5.436,-20.882 7.652,-31.385 1.521,-7.204 3.016,-14.304 4.396,-21.643 1.288,-6.849 2.787,-15.981 2.904,-22.808 1.07,-14.636 -1.819,-31.463 -6.804,-45.354 -0.733,-2.041 -0.273,-1.979 -1.091,-2.362 -0.173,0.28 -0.206,0.037 -0.076,0.702 0.015,0.079 0.177,0.478 0.221,0.588l3.123 9.408c1.071,3.859 2.004,7.804 2.708,11.695 0.753,4.156 1.014,8.787 1.309,13.135 0.314,4.632 -0.313,9.165 -0.334,13.589z"/>
  <path class="fil3" d="M155.41 79.021c-4.582,-11.353 -6.616,-17.653 -4.943,-30.384l1.604 -10.323 -0.893 -0.124c-0.67,0.636 -1.541,9.372 -1.636,10.124 -0.461,3.674 -0.446,7.599 -0.116,11.397 0.416,4.776 3.057,15.409 5.408,18.914l8.392 17.359c2.691,5.614 5.371,12.218 7.601,18.21 4.065,10.922 6.469,17.961 9.798,28.98 1.872,6.196 0.148,5.001 5.172,7.564 -0.448,-2.609 -2.089,-7.208 -2.985,-9.822 -1.095,-3.194 -2.091,-6.337 -3.265,-9.464 -5.37,-14.306 -12.26,-30.91 -19.833,-44.064 -1.496,-2.599 -2.777,-5.512 -4.304,-8.367z"/>
  <path class="fil3" d="M125.195 73.958c0.227,2.366 -0.612,7.902 -0.957,10.462 -2.073,15.384 -5.661,32.08 -9.325,47.126 -1.466,6.016 -3.149,12.087 -4.549,18.073 0.427,-0.221 3.146,-2.217 3.349,-2.654 0.26,-0.561 0.886,-3.871 1.079,-4.734 5.111,-22.843 10.179,-46.148 11.317,-69.501 0.184,-8.651 -0.569,-16.802 -2.177,-25.063 -1.527,-7.847 -2.828,-11.663 -4.879,-18.795 -0.355,-1.234 -0.17,-1.741 -1.302,-2.152 1.023,3.472 2.399,7.064 3.317,10.662 1.905,7.458 3.777,15.789 4.002,23.572l0.125 13.004z"/>
  <path class="fil3" d="M154.081 78.907c-2.518,-6.194 -4.869,-12.251 -5.392,-19.238 -0.29,-3.876 -0.359,-7.523 0.079,-11.298 0.18,-1.559 1.466,-9.953 1.324,-10.473l-0.874 -0.16c-0.642,1.735 -1.181,8.113 -1.37,10.322 -0.637,7.424 0.257,14.372 2.333,21.48 0.747,2.555 2.15,6.75 3.215,8.874l7.217 16.272c5.488,12.87 8,21.718 12.299,34.627 1.988,5.966 3.378,12.116 5.089,18.253l3.244 0.937c-0.417,-2.642 -1.942,-6.679 -2.71,-9.366 -3.379,-11.829 -11.464,-33.184 -16.643,-43.965 -2.6,-5.411 -5.457,-10.676 -7.811,-16.265z"/>
  <path class="fil3" d="M152.641 78.68c-1.994,-6.273 -4.607,-11.368 -5.316,-18.99 -0.371,-3.992 -0.502,-7.522 -0.233,-11.595l1.206 -10.546 -0.99 -0.105c-2.189,12.075 -1.316,20.311 1.562,31.664 0.8,3.157 2.187,6.084 3.046,9.055 0.346,0.513 1.373,3.326 1.689,4.13l5.069 12.607c4.397,10.964 10.782,33.119 13.711,45.237 0.389,1.611 0.74,3.223 1.126,4.84 0.303,1.268 0.222,1.083 1.425,1.542 0.706,0.27 1.334,0.572 2.086,0.709 -1.174,-5.958 -3.449,-12.457 -5.084,-18.291 -2.602,-9.282 -8.481,-25.398 -12.262,-34.27 -2.287,-5.368 -4.923,-10.525 -7.035,-15.987z"/>
  <path class="fil3" d="M151.197 78.208c-2.005,-4.174 -4.552,-14.039 -5.215,-18.722 -0.955,-6.738 -0.685,-15.863 0.633,-22.279 -1.613,-0.166 -1.221,-0.041 -1.693,4.958 -1.023,10.835 0.563,20.84 4.016,31.113 0.455,1.353 1.517,3.732 1.226,4.433 0.395,0.266 0.17,0.032 0.441,0.469l2.829 7.709c3.097,8.022 5.864,17.109 8.205,25.435 1.664,5.918 3.129,11.904 4.599,17.909l3.207 13.771 3.245 2.136c-0.377,-2.763 -3.54,-14.19 -4.466,-17.57 -3.766,-13.733 -8.398,-28.305 -13.935,-41.359 -0.867,-2.043 -2.648,-5.912 -3.092,-8.003z"/>
  <path class="fil3" d="M149.915 77.727c-0.645,-0.268 -1.457,-3.453 -1.71,-4.259 -3.723,-11.886 -5.398,-22.307 -3.697,-34.772 0.243,-1.781 0.609,-1.646 -0.901,-2.119 -0.054,1.658 -0.285,3.531 -0.427,5.291 -0.878,10.886 1.376,20.617 4.317,30.884 0.179,0.626 1.297,3.57 1.109,4.148 -0.013,0.04 -0.086,0.159 -0.125,0.212 0.385,0.225 0.395,0.085 0.69,0.963 3.501,10.388 6.215,19.141 8.994,30.046 1.372,5.383 2.743,11.076 3.802,16.513 0.372,1.911 3.173,16.264 3.501,16.672 0.569,0.568 2.064,1.004 2.887,1.214 -0.251,-2.513 -3.108,-13.727 -3.89,-17.046 -1.313,-5.572 -2.909,-11.083 -4.38,-16.538 -2.651,-9.837 -6.329,-19.782 -9.865,-29.339 -0.076,-0.207 -0.333,-0.839 -0.377,-1.029 -0.202,-0.897 -0.22,-0.318 0.072,-0.841z"/>
  <path class="fil3" d="M132.209 69.705c-0.787,-12.574 -3.933,-23.604 -6.2,-35.648 -0.172,-0.909 -0.296,-1.696 -0.427,-2.589 -0.165,-1.124 0.071,-1.529 -1.104,-1.617 1.834,9.275 4.883,20.549 5.932,29.588l1.161 10.631c1.776,17.852 -2.752,52.37 -5.363,70.981l2.661 -0.757c1.218,-8.137 2.581,-25.705 3.205,-34.408 0.646,-8.987 0.971,-18.135 0.687,-27.187 -0.095,-3.011 -0.438,-6.014 -0.552,-8.994z"/>
  <path class="fil3" d="M148.141 77.129c-0.474,-0.854 -1.021,-3.252 -1.392,-4.351 -2.243,-6.646 -4.607,-18.479 -4.463,-25.38 0.082,-3.935 0.412,-7.366 0.613,-11.089l-0.993 -0.3c-0.884,6.552 -0.437,14.946 0.682,21.315 1.212,6.909 2.522,11.247 4.186,17.61l-0.08 1.454c0.911,0.122 0.351,-0.521 0.822,0.811l4.099 14.219c1.319,5.262 2.497,10.456 3.767,15.757 1.266,5.281 2.361,11.119 3.299,16.501 0.447,2.561 2.374,15.516 2.926,16.692l2.78 0.733c-0.237,-2.423 -1.11,-6.088 -1.626,-8.598 -2.768,-13.462 -5.813,-27.119 -9.836,-40.232 -0.789,-2.572 -4.778,-13.568 -4.784,-15.142z"/>
  <path class="fil3" d="M133.741 69.512c-0.63,-3.44 -0.909,-7.007 -1.49,-10.393 -0.545,-3.175 -1.268,-6.526 -1.826,-9.75 -0.815,-4.708 -2.007,-9.464 -2.814,-14.577 -0.662,-4.196 0.067,-3.607 -1.306,-4.281 -0.232,1.805 3.076,16.206 3.697,19.081 1.846,8.543 1.965,12.208 2.975,20.097 0.417,1.454 0.608,7.356 0.655,9.19 0.395,15.237 -0.802,29.298 -2.182,44.457 -0.501,5.513 -1.315,11.313 -1.654,16.795 0.566,-0.099 2.072,-0.313 2.555,-0.608 0.431,-1.817 0.555,-6.357 0.706,-8.498 1.033,-14.648 2.554,-39.154 1.35,-53.139 -0.139,-1.622 -0.816,-7.455 -0.666,-8.374z"/>
  <path class="fil3" d="M146.443 76.343c-0.923,-2.052 -1.833,-6.683 -2.439,-9.131 -2.199,-8.876 -3.659,-16.843 -3.228,-26.17 0.067,-1.458 0.423,-4.165 0.282,-5.39l-0.674 -0.398c-0.663,0.62 -0.476,3.855 -0.514,4.907 -0.181,4.961 0.466,11.365 1.311,16.092 0.762,4.263 3.04,14.939 4.259,18.83 -0.84,0.187 -0.344,0.206 -0.538,0.362l0.738 0.115c1.066,4.968 2.619,10.183 3.865,15.224 1.274,5.155 2.229,10.446 3.232,15.713 0.661,3.467 5.165,32.935 5.211,33.002 0.546,0.414 1.87,0.487 2.686,0.638 -2.791,-17.779 -5.455,-31.45 -9.868,-48.627 -0.865,-3.368 -4.054,-13.202 -4.323,-15.167z"/>
  <path class="fil3" d="M144.732 75.523c-0.636,-3.232 -1.624,-6.419 -2.364,-9.666 -0.727,-3.193 -1.464,-6.671 -2.011,-9.928 -0.99,-5.889 -1.633,-13.242 -1.088,-19.317 0.132,-1.466 0.524,-1.872 -0.76,-2.209 -0.756,1.473 -0.234,8.774 -0.079,10.892 0.748,10.232 3.113,18.311 5.17,27.773 0.028,0.128 0.093,0.484 0.061,0.623l-0.358 0.595c0.728,0.183 0.47,-0.038 0.745,0.666l1.563 6.837c4.721,22.09 6.173,34.257 8.604,57.416l2.75 0.333c-0.942,-5.589 -1.561,-11.363 -2.418,-17.022 -0.827,-5.461 -1.704,-10.822 -2.687,-16.247 -0.96,-5.296 -2.114,-10.505 -3.273,-15.72 -1.126,-5.064 -2.672,-10.027 -3.855,-15.026z"/>
  <path class="fil3" d="M143.021 74.338c-0.073,-1.103 -0.734,-3.459 -1.023,-4.67 -1.892,-7.908 -3.689,-16.403 -4.308,-24.532l-0.176 -10.96 -0.893 -0.149c-1.191,10.242 3.553,28.634 5.543,39.05 0.753,2.539 2.522,12.384 3.078,15.515 0.953,5.381 1.722,10.865 2.324,16.291 1.273,11.471 2.358,22.849 3.122,34.448l2.628 -0.102c-0.232,-5.258 -1.158,-11.621 -1.809,-16.868 -0.682,-5.503 -1.283,-11.199 -2.229,-16.651 -0.928,-5.353 -1.609,-10.708 -2.8,-16 -1.157,-5.143 -2.297,-10.258 -3.457,-15.372z"/>
  <path class="fil5" d="M141.902 72.927l-0.565 0.114c-0.155,-1.488 -0.647,-3.264 -0.945,-4.714 -2.014,-9.813 -5.564,-25.256 -4.497,-34.568 -1.327,0.398 -1.144,0.335 -1.081,1.984 0.383,10.031 1.985,17.085 3.878,26.914 0.577,3.001 1.391,6.277 1.818,9.229 1.181,4.668 2.015,10.89 2.707,15.788 0.781,5.528 1.432,11.031 1.874,16.601 0.464,5.837 0.851,11.601 1.224,17.437 0.158,2.465 0.518,16.472 0.968,17.452 0.532,0.262 1.768,0.194 2.554,0.198 -1.337,-15.153 -2.579,-35.597 -5.392,-50.49 -0.9,-4.766 -1.767,-10.91 -3.105,-15.496l0.562 -0.449z"/>
  <path class="fil5" d="M122.968 75.341c-0.449,-0.592 -0.271,-0.631 -0.167,-1.936 0.22,-2.757 0.522,-13.206 -0.108,-14.529 0.073,5.18 0.178,10.192 -0.431,15.331 -3.112,26.221 -12.647,56.448 -20.802,81.836 -0.558,1.739 -1.545,4.105 -1.901,5.792 0.561,-0.322 0.398,-0.299 0.931,-0.746 0.325,-0.274 0.663,-0.507 1.021,-0.761 0.347,-0.248 0.693,-0.46 1.042,-0.735 0.519,-0.409 0.439,-0.266 0.685,-1.085 7.224,-24.094 15.041,-52.495 18.696,-77.26 0.23,-1.56 0.409,-5.658 1.034,-5.907z"/>
  <path class="fil3" d="M140.278 71.772c-0.818,0.142 -0.213,0.063 -0.522,-0.11l-3.565 -18.055c-0.926,-5.616 -2.551,-13.731 -2.036,-19.757l-0.978 -0.186c-0.715,1.749 1.874,16.371 2.337,18.846 0.619,3.308 3.248,16.267 3.36,18.418 0.652,1.271 2.167,13.767 2.391,16.007 1.158,11.537 1.783,22.834 2.075,34.447l0.38 17.848 2.629 0.107c-0.498,-5.791 -0.565,-11.942 -0.915,-17.803 -0.343,-5.744 -0.723,-11.415 -1.177,-17.138 -0.625,-7.884 -2.696,-24.797 -4.546,-32.217l0.567 -0.407z"/>
  <path class="fil5" d="M138.294 70.834c-0.481,-0.75 -4.771,-24.663 -5.266,-28.608 -0.205,-1.636 -0.453,-3.424 -0.539,-5.045 -0.261,-4.952 0.284,-3.914 -1.093,-4.68 -0.651,4.754 4.286,25.692 5.27,33.268 0.239,1.845 0.925,3.694 0.404,4.36 0.654,0.16 0.249,-0.359 0.511,0.732 0.36,1.502 1.686,14.334 1.759,15.425 1.21,18.124 1.413,34.607 0.851,52.859l2.534 0.021c0.281,-1.543 -0.192,-15.277 -0.258,-17.962 -0.142,-5.794 -0.283,-11.726 -0.686,-17.5 -0.403,-5.764 -0.821,-11.331 -1.404,-17.068 -0.23,-2.263 -2.306,-15.011 -2.083,-15.802z"/>
  <path class="fil5" d="M136.601 70.052c0.072,-0.976 -3.154,-17.936 -3.397,-19.165 -0.875,-4.432 -1.9,-10.111 -2.356,-14.652 -0.379,-3.765 0.306,-4.142 -1.059,-4.641l0.337 5.021c0.206,1.552 0.459,3.24 0.733,4.841 0.525,3.066 1.224,6.19 1.807,9.188 1.3,6.688 2.125,12.415 3.272,18.925 0.914,5.012 1.352,11.939 1.57,17.105 0.448,10.589 0.487,24.893 -0.06,35.421l-0.659 17.06 2.515 -0.045c0.368,-5.42 0.295,-12.007 0.23,-17.463 -0.158,-13.31 -0.129,-21.477 -1.018,-35.065 -0.367,-5.611 -1.423,-11.002 -1.915,-16.53z"/>
  <path class="fil3" d="M135.168 69.658c-0.607,-3.16 -1.071,-6.555 -1.563,-9.763 -1.003,-6.544 -2.571,-12.717 -3.528,-18.774l-1.033 -7.388c-0.211,-2.591 0.099,-1.873 -0.829,-2.082l3.188 18.711c1.288,6.066 2.44,12.854 3.052,19.119 0.469,1.84 0.668,6.539 0.79,8.596 0.592,10.069 0.433,17.04 0.156,27.143 -0.306,11.188 -1.117,23.202 -2.142,34.315l2.638 -0.26c0.427,-11.528 1.006,-22.911 1.068,-34.484 0.051,-9.55 -0.139,-17.399 -0.919,-26.834 -0.216,-2.61 -0.862,-5.826 -0.878,-8.299z"/>
  <path class="fil5" d="M162.735 90.839c0.064,0.653 3.211,6.574 3.815,7.705 5.197,9.74 13.394,31.009 16.927,41.672 0.983,2.965 1.865,5.945 2.775,8.967 1.333,4.428 0.596,2.066 3.361,5.346 0.482,0.572 0.746,1.048 1.243,1.577 -0.455,-5.266 -10.26,-29.594 -12.294,-34.288 -1.162,-2.683 -5.954,-13.295 -7.438,-15.975 -1.421,-2.567 -2.64,-5.073 -4.044,-7.637l-4.345 -7.367z"/>
  <path class="fil2" d="M155.495 170.231c-0.33,2.215 -0.378,3.173 -1.216,5.144 4.113,-1.038 4.645,-0.572 8.302,0.438 -0.954,-3.444 -0.235,-3.118 0.83,-5.776 -1.052,0.499 -4.868,3.567 -7.916,0.194z"/>
  <path class="fil2" d="M124.375 177.698c0.784,-0.358 0.863,-0.778 2.051,-1.028 1.084,-0.229 1.48,-0.05 2.489,0.02 -0.444,-0.714 -1.24,-1.331 -1.728,-2.455 -0.46,-1.059 -0.216,-2.809 -0.307,-2.995 -2.587,0.557 -3.016,-0.111 -5.148,-0.551 0.879,2.161 2.493,4.265 2.643,7.009z"/>
  <path class="fil4" d="M176.453 186.271c0.32,0.729 2.398,2.375 2.361,6.705 0.996,-0.661 1.89,-1.387 2.696,-2.066 0.48,-0.403 0.651,-0.612 1.162,-1.007 0.447,-0.346 0.768,-0.661 1.023,-1.19 -2.403,-0.44 -5.121,-1.638 -7.242,-2.442z"/>
  <path class="fil4" d="M148.398 141.031c0.702,1.966 1.312,3.227 1.37,5.51 0.23,-0.199 0.112,-0.087 0.329,-0.346l3.669 -5.22 -5.368 0.056z"/>
  <path class="fil4" d="M105.419 159.496c2.69,-0.086 3.99,0.23 6.019,1.35 -0.308,-0.742 -1.006,-1.687 -1.472,-2.63 -0.515,-1.044 -0.724,-2.103 -1.144,-2.988l-2.965 3.689c-0.371,0.415 -0.118,-0.015 -0.438,0.579z"/>
  <path class="fil4" d="M173.51 147.856c0.769,3.449 -0.091,4.034 -0.128,5.472l4.905 -3.762 -4.777 -1.71z"/>
  <path class="fil1" d="M112.811 172.213c-0.98,-2.287 -4.506,-1.022 -3.499,1.562 0.82,2.101 4.557,0.907 3.499,-1.562z"/>
  <path class="fil1" d="M116.492 187.882c-0.983,-2.265 -4.476,-1.008 -3.497,1.559 0.804,2.109 4.585,0.949 3.497,-1.559z"/>
  <path class="fil1" d="M120.524 150.213c2.464,1.151 3.802,-2.548 1.736,-3.427 -2.646,-1.125 -3.851,2.44 -1.736,3.427z"/>
  <path class="fil1" d="M151.805 149.562c-2.212,0.566 -1.617,4.219 1.022,3.685 2.322,-0.47 1.758,-4.396 -1.022,-3.685z"/>
  <path class="fil1" d="M113.715 153.948c-2.16,0.56 -1.714,4.234 1.036,3.681 2.324,-0.467 1.683,-4.386 -1.036,-3.681z"/>
  <path class="fil6" d="M151.076 62.152c-0.661,-7.714 0.989,-15.79 2.367,-23.08 -0.323,-0.205 -0.164,-0.143 -0.593,-0.288 -0.85,2.609 -1.424,8.05 -1.792,11.015 -0.386,3.107 -0.441,7.396 -0.391,10.607 0.014,0.882 -0.029,1.095 0.409,1.746z"/>
  <path class="fil1" d="M159.148 161.559c2.363,1.212 3.896,-2.43 1.755,-3.417 -2.486,-1.145 -3.894,2.319 -1.755,3.417z"/>
  <path class="fil1" d="M149.208 184.466c2.517,1.081 3.683,-2.535 1.729,-3.448 -2.542,-1.188 -3.943,2.497 -1.729,3.448z"/>
  <path class="fil1" d="M103.384 176.969c-2.249,0.55 -1.626,4.246 1.016,3.683 2.294,-0.489 1.752,-4.359 -1.016,-3.683z"/>
  <path class="fil1" d="M158.223 145.93c2.09,0.995 3.855,-2.576 1.394,-3.564 -2.396,-0.961 -3.778,2.43 -1.394,3.564z"/>
  <path class="fil1" d="M154.154 148.942c2.511,1.061 3.666,-2.513 1.716,-3.447 -2.546,-1.22 -3.917,2.517 -1.716,3.447z"/>
  <path class="fil1" d="M148.268 163.756c-0.904,-2.273 -4.568,-1.028 -3.499,1.57 0.837,2.033 4.492,0.928 3.499,-1.57z"/>
  <path class="fil1" d="M124.9 193.982c-0.929,-2.311 -4.55,-0.991 -3.501,1.569 0.835,2.038 4.498,0.916 3.501,-1.569z"/>
  <path class="fil1" d="M134.25 147.805c-2.176,0.559 -1.715,4.276 1.02,3.663 2.425,-0.542 1.587,-4.331 -1.02,-3.663z"/>
  <path class="fil1" d="M132.073 190.975c-0.312,-1.015 -0.95,-1.626 -2.346,-1.305 -0.976,0.224 -1.62,1.126 -1.277,2.358 0.685,2.467 4.366,1.367 3.623,-1.053z"/>
  <path class="fil1" d="M137.159 186.783c-1.018,-1.926 -4.472,-0.927 -3.432,1.743 0.819,2.102 4.743,0.735 3.432,-1.743z"/>
  <path class="fil1" d="M131.205 161.839c2.492,1.053 3.654,-2.49 1.71,-3.444 -2.514,-1.234 -3.938,2.503 -1.71,3.444z"/>
  <path class="fil1" d="M190.069 176.028c-0.875,-2.213 -4.605,-1.021 -3.493,1.576 0.872,2.039 4.484,0.929 3.493,-1.576z"/>
  <path class="fil1" d="M185.861 164.566c-0.801,-2.437 -4.529,-1.121 -3.556,1.382 0.787,2.025 4.406,1.2 3.556,-1.382z"/>
  <path class="fil1" d="M118.821 153.405c-2.188,0.565 -1.566,4.193 1.013,3.682 2.361,-0.468 1.734,-4.393 -1.013,-3.682z"/>
  <path class="fil1" d="M123.774 154.932c2.202,1.091 3.716,-2.599 1.399,-3.565 -2.287,-0.952 -3.8,2.375 -1.399,3.565z"/>
  <path class="fil1" d="M138.724 154.53c2.386,1.084 3.81,-2.533 1.75,-3.425 -2.634,-1.142 -3.874,2.46 -1.75,3.425z"/>
  <path class="fil1" d="M170.055 189.716c-0.997,-2.464 -4.518,-0.952 -3.504,1.543 0.842,2.068 4.45,0.794 3.504,-1.543z"/>
  <path class="fil1" d="M188.491 158.566c-1.692,-3.044 -5.617,1.057 -2.502,2.568 1.677,0.814 3.359,-1.026 2.502,-2.568z"/>
  <path class="fil1" d="M115.882 176.621c-0.957,-2.127 -4.371,-0.856 -3.492,1.587 0.814,2.263 4.622,0.925 3.492,-1.587z"/>
  <path class="fil1" d="M139.207 149.477c1.026,0.484 2.151,-0.384 2.418,-1.027 0.455,-1.092 -0.09,-2.16 -1.016,-2.536 -2.471,-1.004 -3.75,2.456 -1.402,3.563z"/>
  <path class="fil1" d="M158.657 147.833c-2.275,0.49 -1.706,4.356 1.014,3.686 2.206,-0.544 1.642,-4.258 -1.014,-3.686z"/>
  <path class="fil1" d="M163.79 148.564c-0.965,0.136 -1.63,1.035 -1.514,2.108 0.122,1.117 0.953,1.816 2.184,1.645 2.289,-0.318 2.157,-4.149 -0.67,-3.753z"/>
  <path class="fil1" d="M153.583 186.577c2.193,1.136 3.747,-2.614 1.398,-3.565 -2.454,-0.994 -3.583,2.434 -1.398,3.565z"/>
  <path class="fil1" d="M184.704 175.843c-1.091,-2.351 -4.422,-1.036 -3.487,1.512 0.758,2.062 4.613,0.912 3.487,-1.512z"/>
  <path class="fil1" d="M156.404 162.092c-2.121,0.594 -1.606,4.194 1.024,3.666 2.407,-0.484 1.674,-4.422 -1.024,-3.666z"/>
  <path class="fil1" d="M131.788 170.648c-2.282,0.486 -1.707,4.358 1.01,3.682 2.2,-0.548 1.644,-4.249 -1.01,-3.682z"/>
  <path class="fil1" d="M99.006 174.778c-2.275,0.438 -1.77,4.219 0.849,3.703 2.284,-0.449 1.947,-4.241 -0.849,-3.703z"/>
  <path class="fil1" d="M160.394 187.522c-0.775,-2.444 -4.31,-1.433 -3.64,1.114 0.642,2.44 4.373,1.195 3.64,-1.114z"/>
  <path class="fil1" d="M153.758 158.009c-2.136,0.585 -1.623,4.219 1.021,3.669 2.394,-0.499 1.656,-4.401 -1.021,-3.669z"/>
  <path class="fil1" d="M160.577 163.957c-2.254,0.369 -1.829,4.291 0.846,3.726 2.154,-0.455 2.004,-4.192 -0.846,-3.726z"/>
  <path class="fil1" d="M119.336 173.218c-1.077,-1.968 -4.542,-0.846 -3.415,1.714 0.982,2.233 4.673,0.586 3.415,-1.714z"/>
  <path class="fil1" d="M178.991 156.459c-0.803,-2.452 -4.539,-1.133 -3.561,1.376 0.742,1.904 4.428,1.27 3.561,-1.376z"/>
  <path class="fil1" d="M159.462 192.54c-1.737,-3.34 -5.526,0.939 -2.585,2.41 1.73,0.865 3.369,-0.903 2.585,-2.41z"/>
  <path class="fil1" d="M151.281 167.903c-0.611,-2.562 -4.494,-1.461 -3.638,1.073 0.112,0.333 0.536,0.826 0.782,0.991 0.459,0.308 0.945,0.359 1.58,0.209 0.948,-0.224 1.558,-1.089 1.276,-2.273z"/>
  <path class="fil1" d="M114.387 181.867c-0.608,-2.567 -4.486,-1.422 -3.637,1.08 0.299,0.881 1.206,1.471 2.355,1.206 0.963,-0.222 1.566,-1.09 1.282,-2.286z"/>
  <path class="fil1" d="M181.658 181.21c-0.569,-0.837 -1.409,-1.466 -2.625,-0.77 -0.641,0.368 -1.276,1.506 -0.697,2.546 1.296,2.33 4.71,0.262 3.322,-1.776z"/>
  <path class="fil1" d="M137.264 192.159c-0.788,-2.452 -4.314,-1.445 -3.641,1.112 0.641,2.439 4.374,1.167 3.641,-1.112z"/>
  <path class="fil1" d="M174.298 166.347c-1.009,-2.171 -4.362,-0.884 -3.495,1.573 0.778,2.206 4.648,0.906 3.495,-1.573z"/>
  <path class="fil1" d="M164.948 190.605c-1.818,-3.112 -5.566,1.107 -2.507,2.551 1.62,0.765 3.391,-1.038 2.507,-2.551z"/>
  <path class="fil1" d="M116.168 149.029c-2.235,0.369 -1.959,3.937 0.626,3.73 2.495,-0.2 2.163,-4.19 -0.626,-3.73z"/>
  <path class="fil1" d="M179.888 170.968c-1.471,-2.275 -4.494,-0.307 -3.343,1.826 0.471,0.873 1.534,1.224 2.565,0.79 0.763,-0.32 1.444,-1.586 0.778,-2.616z"/>
  <path class="fil1" d="M127.583 184.614c-0.335,-1.033 -1.016,-1.72 -2.475,-1.296 -0.896,0.26 -1.524,1.255 -1.104,2.476 0.742,2.16 4.347,1.189 3.579,-1.18z"/>
  <path class="fil1" d="M119.331 183.304c-1.787,-3.075 -5.565,1.1 -2.508,2.558 0.479,0.228 1.031,0.239 1.527,0.045 0.825,-0.324 1.639,-1.472 0.981,-2.603z"/>
  <path class="fil1" d="M142.363 185.686c-0.308,-0.99 -0.909,-1.736 -2.343,-1.382 -0.892,0.221 -1.603,1.279 -1.284,2.409 0.683,2.417 4.343,1.271 3.627,-1.027z"/>
  <path class="fil1" d="M174.972 171.504c-1.134,-2.287 -4.378,-0.827 -3.47,1.518 0.853,2.204 4.683,0.926 3.47,-1.518z"/>
  <path class="fil1" d="M139.78 167.059c-2.257,0.404 -1.944,4.177 0.797,3.708 2.257,-0.385 1.939,-4.197 -0.797,-3.708z"/>
  <path class="fil1" d="M141.9 191.146c-1.296,-2.405 -4.444,-0.394 -3.312,1.755 1.121,2.129 4.585,0.609 3.312,-1.755z"/>
  <path class="fil1" d="M147.857 185.691c-2.225,0.382 -1.838,4.265 0.848,3.723 2.249,-0.453 1.889,-4.194 -0.848,-3.723z"/>
  <path class="fil1" d="M166.702 155.836c-2.266,0.144 -2.263,3.971 0.446,3.755 2.445,-0.196 2.28,-3.927 -0.446,-3.755z"/>
  <path class="fil1" d="M187.181 181.305c-1.061,-2.448 -4.457,-0.984 -3.483,1.505 0.856,2.191 4.451,0.727 3.483,-1.505z"/>
  <path class="fil1" d="M179.625 176.731c-0.665,-2.405 -4.275,-1.698 -3.683,0.926 0.549,2.434 4.333,1.421 3.683,-0.926z"/>
  <path class="fil1" d="M170.124 184.441c-0.783,-2.543 -4.467,-1.264 -3.578,1.2 0.812,2.253 4.311,1.184 3.578,-1.2z"/>
  <path class="fil1" d="M168.257 145.755c-2.304,0.15 -2.168,3.992 0.443,3.758 2.46,-0.221 2.307,-3.937 -0.443,-3.758z"/>
  <path class="fil1" d="M126.638 159.948c-2.135,0.592 -1.544,4.145 1.026,3.681 2.391,-0.433 1.669,-4.429 -1.026,-3.681z"/>
  <path class="fil1" d="M155.368 196.359c-0.936,0.15 -1.661,1.189 -1.448,2.271 0.194,0.978 1.103,1.705 2.297,1.451 2.145,-0.457 1.963,-4.173 -0.849,-3.722z"/>
  <path class="fil1" d="M175.522 178.991c-1.047,-2.458 -4.48,-0.987 -3.482,1.506 0.875,2.183 4.427,0.71 3.482,-1.506z"/>
  <path class="fil1" d="M163.533 196.303c-0.299,-0.862 -1.315,-1.474 -2.352,-1.167 -0.923,0.272 -1.711,1.309 -1.203,2.57 0.858,2.134 4.41,1.062 3.555,-1.403z"/>
  <path class="fil1" d="M175.316 160.702c-1.18,-2.347 -4.405,-0.889 -3.475,1.504 0.819,2.108 4.683,0.898 3.475,-1.504z"/>
  <path class="fil1" d="M101.737 164.442c-0.924,0.15 -1.657,1.177 -1.437,2.266 0.194,0.96 1.098,1.702 2.286,1.455 2.138,-0.446 2,-4.184 -0.849,-3.721z"/>
  <path class="fil1" d="M127.513 154.901c-2.323,0.221 -2.06,4.145 0.618,3.741 0.552,-0.083 0.942,-0.385 1.221,-0.738 0.348,-0.441 0.448,-0.894 0.326,-1.545 -0.199,-1.06 -1.078,-1.561 -2.165,-1.458z"/>
  <path class="fil1" d="M136.814 182.408c-0.175,-0.606 -0.183,-0.763 -0.781,-1.11 -0.445,-0.257 -1.014,-0.37 -1.59,-0.22 -0.463,0.122 -0.883,0.553 -1.085,0.9 -1.815,3.114 4.479,3.987 3.456,0.43z"/>
  <path class="fil1" d="M146.596 170.132c-1.552,-2.346 -4.507,-0.232 -3.349,1.819 0.416,0.737 1.558,1.213 2.581,0.775 0.735,-0.316 1.435,-1.585 0.768,-2.594z"/>
  <path class="fil1" d="M170.931 175.719c-1.144,-2.279 -4.369,-0.801 -3.471,1.522 0.891,2.305 4.64,0.806 3.471,-1.522z"/>
  <path class="fil1" d="M149.458 196.108c-2.302,0.184 -2.14,4 0.436,3.763 2.438,-0.225 2.329,-3.983 -0.436,-3.763z"/>
  <path class="fil1" d="M120 162.485c-0.897,0.151 -1.645,1.178 -1.428,2.25 0.193,0.958 1.087,1.709 2.279,1.468 2.165,-0.438 1.997,-4.2 -0.851,-3.718z"/>
  <path class="fil1" d="M124.455 168.302c2.551,1.063 3.56,-2.74 1.401,-3.564 -2.543,-0.97 -3.43,2.719 -1.401,3.564z"/>
  <path class="fil1" d="M148.448 194.933c2.34,1.023 3.696,-2.507 1.56,-3.5 -2.492,-1.159 -3.691,2.568 -1.56,3.5z"/>
  <path class="fil1" d="M150.53 154.343c-0.541,0.094 -0.88,0.435 -1.133,0.799 -0.289,0.417 -0.413,0.872 -0.292,1.456 0.196,0.949 1.087,1.704 2.276,1.467 2.255,-0.449 1.886,-4.198 -0.851,-3.722z"/>
  <path class="fil1" d="M153.052 189.325c-2.041,0.605 -1.519,4.196 1.025,3.666 2.4,-0.501 1.72,-4.48 -1.025,-3.666z"/>
  <path class="fil1" d="M191.502 170.502c-1.283,-2.095 -4.582,-0.497 -3.326,1.821 1.139,2.102 4.687,0.401 3.326,-1.821z"/>
  <path class="fil1" d="M146.094 148.551c-0.245,-0.514 -0.076,-0.689 -0.932,-0.934 -1.795,-0.513 -3.088,1.197 -2.375,2.685 0.715,1.489 2.839,1.342 3.442,-0.155 0.349,-0.867 0.179,-0.935 -0.135,-1.596z"/>
  <path class="fil1" d="M104.864 181.76c-2.356,0.217 -1.949,4.133 0.616,3.74 2.207,-0.338 2.258,-4.005 -0.616,-3.74z"/>
  <path class="fil1" d="M135.795 155.622c-2.076,0.598 -1.493,4.116 1.027,3.677 2.424,-0.423 1.679,-4.457 -1.027,-3.677z"/>
  <path class="fil1" d="M131.969 185.853c-0.711,-2.444 -4.291,-1.454 -3.64,1.075 0.57,2.215 4.369,1.431 3.64,-1.075z"/>
  <path class="fil1" d="M140.041 196.514c-1.211,-2.468 -4.624,-0.502 -3.311,1.747 1.102,1.888 4.472,0.622 3.311,-1.747z"/>
  <path class="fil1" d="M169.233 195.783c-0.702,-2.227 -4.443,-1.281 -3.613,1.243 0.711,2.164 4.425,1.332 3.613,-1.243z"/>
  <path class="fil1" d="M154.764 177.368c-2.26,0.389 -1.975,3.994 0.629,3.716 2.436,-0.26 2.076,-4.182 -0.629,-3.716z"/>
  <path class="fil1" d="M128.44 152.197c2.542,1.066 3.641,-2.547 1.742,-3.424 -2.621,-1.21 -3.761,2.577 -1.742,3.424z"/>
  <path class="fil1" d="M125.715 144.442c-2.052,0.621 -1.486,4.166 1.022,3.661 2.496,-0.503 1.62,-4.462 -1.022,-3.661z"/>
  <path class="fil1" d="M169.665 169.96c-0.982,-2.061 -4.334,-0.903 -3.49,1.587 0.731,2.159 4.675,0.897 3.49,-1.587z"/>
  <path class="fil1" d="M135.022 165.466c-2.096,0.576 -1.507,4.153 1.021,3.683 2.383,-0.442 1.671,-4.422 -1.021,-3.683z"/>
  <path class="fil1" d="M185.225 170.645c-0.696,-2.237 -4.458,-1.297 -3.612,1.238 0.716,2.144 4.41,1.326 3.612,-1.238z"/>
  <path class="fil1" d="M163.646 160.174c-2.287,0.759 -1.23,4.377 1.186,3.612 2.374,-0.75 1.246,-4.419 -1.186,-3.612z"/>
  <path class="fil1" d="M147.476 175.688c-1.407,-2.568 -4.341,-0.543 -3.455,1.47 0.928,2.108 4.762,0.915 3.455,-1.47z"/>
  <path class="fil1" d="M174.499 193.267c-0.972,-1.905 -4.447,-0.77 -3.435,1.742 0.848,2.105 4.689,0.719 3.435,-1.742z"/>
  <path class="fil1" d="M163.085 143.243c-2.331,0.455 -1.65,4.163 0.853,3.727 2.275,-0.397 1.814,-4.247 -0.853,-3.727z"/>
  <path class="fil1" d="M145.452 143.596c-0.731,-2.254 -4.43,-1.376 -3.615,1.208 0.675,2.141 4.429,1.3 3.615,-1.208z"/>
  <path class="fil1" d="M110.758 177.999c-0.838,-2.401 -4.473,-1.113 -3.561,1.379 0.738,2.014 4.418,1.074 3.561,-1.379z"/>
  <path class="fil1" d="M121.434 178.907c-0.814,-2.276 -4.554,-1.358 -3.61,1.228 0.308,0.843 1.348,1.533 2.483,1.106 0.712,-0.267 1.493,-1.312 1.127,-2.334z"/>
  <path class="fil1" d="M142.009 175.955c-0.748,-2.242 -4.399,-1.366 -3.615,1.205 0.657,2.156 4.456,1.313 3.615,-1.205z"/>
  <path class="fil1" d="M116.625 168.671c-1.312,-2.515 -4.433,-0.656 -3.457,1.471 0.943,2.055 4.698,0.909 3.457,-1.471z"/>
  <path class="fil1" d="M156.206 152.855c-2.238,0.283 -1.925,4.158 0.667,3.755 2.259,-0.351 2.101,-4.106 -0.667,-3.755z"/>
  <path class="fil1" d="M136.523 171.154c-2.117,0.676 -1.353,4.33 1.199,3.64 2.209,-0.597 1.416,-4.475 -1.199,-3.64z"/>
  <path class="fil1" d="M130.072 195.629c-0.715,-2.224 -4.465,-1.41 -3.625,1.255 0.71,2.255 4.357,1.022 3.625,-1.255z"/>
  <path class="fil1" d="M151.529 172.466c-0.167,-0.378 -0.378,-0.78 -0.876,-1.01 -1.576,-0.727 -3.394,0.94 -2.505,2.611 1.067,2.006 4.436,0.788 3.381,-1.601z"/>
  <path class="fil1" d="M168.365 150.804c-2.26,0.289 -1.95,4.143 0.663,3.759 2.397,-0.352 1.909,-4.088 -0.663,-3.759z"/>
  <path class="fil1" d="M165.244 185.904c-0.72,-2.268 -4.312,-1.497 -3.637,1.087 0.582,2.229 4.433,1.423 3.637,-1.087z"/>
  <path class="fil1" d="M184.819 153.983c-1.398,-2.283 -4.467,-0.552 -3.379,1.631 1.14,2.285 4.655,0.453 3.379,-1.631z"/>
  <path class="fil1" d="M104.07 172.282c-2.228,0.715 -1.267,4.425 1.189,3.61 2.2,-0.729 1.389,-4.437 -1.189,-3.61z"/>
  <path class="fil1" d="M134.918 196.46c-1.194,-2.65 -4.284,-0.846 -3.514,1.33 0.836,2.363 4.484,0.826 3.514,-1.33z"/>
  <path class="fil1" d="M136.166 145.349c2.61,0.971 3.444,-2.714 1.582,-3.484 -2.636,-1.09 -3.678,2.705 -1.582,3.484z"/>
  <path class="fil1" d="M122.259 157.718c-2.226,0.296 -1.937,4.176 0.666,3.75 0.898,-0.146 1.762,-1.05 1.543,-2.258 -0.17,-0.938 -1.097,-1.64 -2.209,-1.492z"/>
  <path class="fil1" d="M160.971 181.715c-1.169,-2.44 -4.455,-0.583 -3.382,1.605 1.091,2.226 4.44,0.602 3.382,-1.605z"/>
  <path class="fil1" d="M161.601 156.626c2.467,1.007 3.587,-2.539 1.746,-3.447 -2.54,-1.253 -3.796,2.611 -1.746,3.447z"/>
  <path class="fil1" d="M108.629 163.128c-1.422,-2.285 -4.447,-0.597 -3.381,1.614 1.097,2.273 4.664,0.449 3.381,-1.614z"/>
  <path class="fil1" d="M179.914 164.953c-1.117,-2.287 -4.478,-0.687 -3.38,1.61 1.017,2.131 4.515,0.714 3.38,-1.61z"/>
  <path class="fil1" d="M131.009 180.593c-0.26,-0.501 -0.041,-0.659 -0.941,-0.924 -1.841,-0.543 -3.037,1.126 -2.365,2.672 0.861,1.976 4.594,0.732 3.306,-1.748z"/>
  <path class="fil1" d="M131.39 142.921c-0.916,0.166 -1.618,1.214 -1.411,2.273 0.178,0.918 1.164,1.661 2.252,1.449 2.298,-0.447 1.755,-4.195 -0.841,-3.722z"/>
  <path class="fil1" d="M111.851 166.791c-0.255,-0.519 -0.087,-0.668 -0.949,-0.906 -2.069,-0.57 -2.971,1.408 -2.373,2.669 0.946,1.998 4.547,0.732 3.322,-1.763z"/>
  <path class="fil1" d="M165.77 180.656c-0.884,-1.912 -4.368,-0.918 -3.491,1.597 0.747,2.144 4.647,0.903 3.491,-1.597z"/>
  <path class="fil1" d="M98.967 172.938c2.456,0.99 3.574,-2.517 1.732,-3.443 -2.515,-1.263 -3.792,2.612 -1.732,3.443z"/>
  <path class="fil1" d="M143.123 163.737c-0.258,-0.902 -1.255,-1.623 -2.393,-1.312 -0.86,0.235 -1.575,1.274 -1.244,2.398 0.627,2.138 4.348,1.404 3.637,-1.086z"/>
  <path class="fil1" d="M131.995 152.81c-2.284,0.257 -1.877,4.077 0.613,3.74 2.285,-0.309 2.146,-4.051 -0.613,-3.74z"/>
  <path class="fil1" d="M116.564 158.282c-1.005,0.129 -1.701,1.152 -1.506,2.249 0.163,0.917 1.041,1.617 2.131,1.488 2.375,-0.28 1.968,-4.071 -0.625,-3.737z"/>
  <path class="fil1" d="M126.288 188.734c-0.255,-0.515 -0.087,-0.671 -0.945,-0.916 -1.821,-0.52 -3.041,1.181 -2.365,2.673 0.909,2.005 4.54,0.718 3.31,-1.757z"/>
  <path class="fil1" d="M174.287 187.711c-0.253,-0.513 -0.066,-0.677 -0.94,-0.926 -1.564,-0.444 -3.169,0.932 -2.369,2.68 0.913,1.994 4.521,0.705 3.309,-1.754z"/>
  <path class="fil1" d="M191.961 164.855c-0.597,-2.27 -4.442,-1.511 -3.635,1.081 0.667,2.143 4.281,1.377 3.635,-1.081z"/>
  <path class="fil1" d="M111.337 186.454c-0.602,-2.246 -4.427,-1.479 -3.635,1.087 0.671,2.174 4.287,1.345 3.635,-1.087z"/>
  <path class="fil1" d="M107.549 168.492c-1.112,-2.508 -4.54,-0.599 -3.38,1.6 0.988,1.87 4.427,0.762 3.38,-1.6z"/>
  <path class="fil4" d="M141.889 159.394c2.265,-0.231 3.455,-0.254 5.546,0.368 -0.678,-1.781 -1.518,-2.236 -1.522,-4.841l-1.132 1.188c-1.537,1.929 -1.943,1.85 -2.892,3.285z"/>
  <path class="fil1" d="M182.808 160.329c-0.616,-2.228 -4.405,-1.477 -3.636,1.084 0.636,2.121 4.324,1.398 3.636,-1.084z"/>
  <path class="fil4" d="M144.563 196.114c-1.418,2.295 0.545,0.943 -2.781,4.97 -0.024,0.03 -0.136,0.113 -0.099,0.134 0.039,0.02 -0.069,0.088 -0.097,0.105l4.529 0.019 -1.552 -5.228z"/>
  <path class="fil4" d="M119.201 191.578c-0.192,0.23 -3.43,2.539 -4.489,2.779l3.476 1.964c0.172,-1.974 0.468,-2.989 1.013,-4.743z"/>
  <path class="fil7" d="M141.504 181.485c0.46,0.42 1.064,0.638 1.466,1.019l1.327 1.268 0.933 -2.549 -3.726 0.262z"/>
  <path class="fil8" d="M162.735 90.839c-0.081,-0.621 -0.042,-0.424 -0.394,-0.96l-0.537 -0.731c-0.027,-0.032 -0.079,-0.085 -0.118,-0.127 0.176,0.532 0.222,0.588 0.473,1.032l0.576 0.786z"/>
  <line class="fil9" x1="160.541" y1="86.897" x2="160.541" y2= "86.897" />
 </g>
</svg>
