<?xml version="1.0" encoding="UTF-8"?>
<!DOCTYPE svg PUBLIC "-//W3C//DTD SVG 1.1//EN" "http://www.w3.org/Graphics/SVG/1.1/DTD/svg11.dtd">
<!-- Creator: CorelDRAW 2018 (64 Bit) -->
<svg xmlns="http://www.w3.org/2000/svg" xml:space="preserve" width="220px" height="220px" version="1.1" style="shape-rendering:geometricPrecision; text-rendering:geometricPrecision; image-rendering:optimizeQuality; fill-rule:evenodd; clip-rule:evenodd"
viewBox="0 0 220 220"
 xmlns:xlink="http://www.w3.org/1999/xlink">
 <defs>
  <style type="text/css">
   <![CDATA[
    .str1 {stroke:#CCCCCC;stroke-width:3;stroke-miterlimit:22.9256}
    .str0 {stroke:#CCCCCC;stroke-width:5;stroke-miterlimit:22.9256}
    .fil3 {fill:#CBCBCB}
    .fil2 {fill:#CCCCCC}
    .fil1 {fill:#D2D2D2}
    .fil0 {fill:#D8D8D8}
   ]]>
  </style>
 </defs>
 <g id="Capa_x0020_1">
  <metadata id="CorelCorpID_0Corel-Layer"/>
  <path class="fil0 str0" d="M61.743 26.253c-6.31,2.873 -11.477,5.616 -15.081,12.102l-0.418 0.004c-0.402,1.859 -1.892,4.423 -3.023,5.8 -0.069,0.082 -0.168,0.184 -0.234,0.266 -0.067,0.08 -0.166,0.182 -0.231,0.264l-4.159 7.981c-0.774,2.238 -1.331,3.833 -1.399,6.452 1.877,-0.597 2.553,-0.966 4.117,-1.811 0.685,-0.369 1.099,-0.682 1.826,-1.089 1.101,-0.615 -0.445,-0.788 1.845,-0.507 -1.083,5.616 -17.844,23.478 -17.956,40.074 -0.03,4.207 0.085,15.104 1.446,18.373 1.464,-2.54 6.586,-10.955 8.193,-12.288 -0.187,4.699 -0.153,9.724 0.817,14.489l2.898 10.138c0.677,1.203 -0.115,0.528 0.991,1.106 0.853,-1.754 0.528,-4.147 1.946,-4.988 0.472,2.537 1.113,3.143 1.776,5.067 1.703,4.936 3.785,8.959 7.473,12.84 1.279,-2.754 0.598,-12.193 3.825,-17.027 1.473,-2.207 2.831,-4.124 4.447,-6.268l4.381 -6.152 -0.759 6.276c1.956,-0.776 1.478,-0.643 3.505,-3.227 0.865,-1.104 0.35,-0.522 1.341,-1.613 1.093,-1.205 0.297,-0.938 1.754,-1.457 0.909,2.207 1.014,14.833 1.999,18.244l0.434 1.285c8.528,-13.217 7.085,-12.562 17.537,-25.527 4.552,-5.646 4.695,-5.54 9.075,-9.914l6.957 -6.196c1.885,-1.597 4.693,-3.227 6.627,-4.5 2.299,-1.516 3.923,-2.606 6.542,-4.261l3.085 -2.231c3.081,-2.452 6.002,-4.639 8.101,-7.949 8.055,-12.712 7.6,-25.556 5.516,-40.626 -0.136,-0.987 -0.382,-3.585 -0.939,-4.695 0.33,0.606 0.646,0.574 1.142,1.013 -0.579,-2.918 -4.982,-10.665 -6.6,-13.723 -19.409,-3.961 -37.534,-6.786 -68.797,14.275z"/>
  <path class="fil1 str1" d="M102.868 172.579c1.3,2.769 1.245,4.674 3.392,7.858l5.16 6.407 5.039 4.698c2.564,2.229 1.811,0.733 3.568,2.298 2.527,2.249 0.848,0.441 5.853,3.726 0.084,0.055 0.205,0.132 0.294,0.185 2.382,1.46 3.515,1.195 5.011,1.932l11.747 4.712c0.491,0.183 0.807,0.323 1.431,0.578 0.134,0.055 0.502,0.218 0.623,0.265l4.174 0.906c-1.088,-1.905 0.498,0.243 -2.571,-1.96 -2.953,-2.12 -8.944,-7.655 -10.457,-9.912 -3.301,-4.926 -6.243,-11.035 -8.01,-16.742 -2.561,-8.274 -4.649,-24.876 -0.483,-32.385 2.386,-4.298 1.942,-6.123 4.313,-8.129l-0.536 -3.97c0.004,-0.867 4.143,-4.914 4.792,-5.873 11.403,-7.57 32.696,-6.644 43.585,0.785 0.841,0.746 0.464,0.224 1.111,0.862 1.768,1.743 3.044,1.142 4.054,2.649 0.614,0.917 1.084,0.844 2.194,1.61l1.744 1.694c0.069,0.076 0.166,0.187 0.235,0.26 0.065,0.07 0.17,0.174 0.235,0.242l3.959 5.506c0.454,1.159 0.663,2.35 1.026,3.39 2.748,7.904 3.47,6.12 0.85,13.205 -3.781,6.127 -10.929,7.109 -20.237,4.791 -3.096,-0.771 13.733,12.862 29.64,-2.451 2.524,-2.984 1.397,-6.375 3.219,-10.707 7.047,-16.749 -0.432,-38.88 -12.923,-50.009 -11.479,-10.228 -18.357,-9.679 -21.963,-11.636 -11.098,-1.222 -16.277,-1.914 -27.569,0.172 -7.127,1.317 -16.498,5.091 -21.922,8.285 -6.334,3.731 -11.851,8.209 -15.529,14.608 -9.103,15.837 -15.606,39.654 -5.049,62.15z"/>
  <path class="fil2" d="M46.662 38.355c-1.154,0.24 -0.75,0.503 -1.634,1.684 -0.813,1.087 -1.06,1.417 -1.942,2.483 -1.216,1.47 -2.561,3.659 -3.706,4.297 -1.004,2.183 -2.802,4.189 -4.486,6.444 -7.454,9.984 -14.757,24.281 -17.625,36.92 -0.844,3.713 -3.626,15.144 -3.501,18.106l7.349 -8.255c-0.28,4.954 -3.475,27.274 -4.742,31.423 0.585,-0.15 4.629,-6.061 5.453,-7.011 0.596,15.101 -0.299,18.404 4.089,32.54 0.863,2.778 2.628,7.108 3.068,9.666 0.388,-0.501 0.332,-0.364 0.69,-1.207l2.304 -9.569c0.559,4.89 10.621,26.402 14.732,28.496 1.536,0.807 1.334,-2.71 1.568,-5.847 0.236,-3.169 1.3,-11.365 2.197,-14.279 0.204,-0.661 0.61,-2.314 0.878,-3.01 0.29,-0.757 1.07,-1.921 1.613,-2.764l13.717 -19.346c0.521,0.666 0.244,-0.188 0.44,1.061 0.275,1.763 -1.379,7.958 -1.82,9.465l5.598 -5.829c1.306,-1.463 3.802,-5.082 5.761,-5.448 -0.592,1.155 0.137,2.436 0.729,3.39 1.773,-1.431 1.97,-1.971 3.361,-3.656 4.25,-5.151 4.615,-4.745 9.724,-12.255l12.109 -17.735c4.417,-7.194 7.347,-9.996 13.441,-15.552l6.536 -5.164c9.33,-6.913 13.921,-9.947 18.486,-22.304 1.354,-3.664 1.453,-5.274 2.051,-9.299 0.814,-5.402 -0.162,-11.552 -1.307,-16.627 -0.706,-3.133 -3.12,-11.788 -4.653,-13.472 -0.496,-0.439 -0.812,-0.407 -1.142,-1.013 0.557,1.11 0.803,3.708 0.939,4.695 2.084,15.07 2.539,27.914 -5.516,40.626 -2.099,3.31 -5.02,5.497 -8.101,7.949l-3.085 2.231c-2.619,1.655 -4.243,2.745 -6.542,4.261 -1.934,1.273 -4.742,2.903 -6.627,4.5l-6.957 6.196c-4.38,4.374 -4.523,4.268 -9.075,9.914 -10.452,12.965 -9.009,12.31 -17.537,25.527l-0.434 -1.285c-0.985,-3.411 -1.09,-16.037 -1.999,-18.244 -1.457,0.519 -0.661,0.252 -1.754,1.457 -0.991,1.091 -0.476,0.509 -1.341,1.613 -2.027,2.584 -1.549,2.451 -3.505,3.227l0.759 -6.276 -4.381 6.152c-1.616,2.145 -2.974,4.061 -4.447,6.268 -3.227,4.834 -2.546,14.273 -3.825,17.027 -3.688,-3.881 -5.77,-7.904 -7.473,-12.84 -0.663,-1.924 -1.304,-2.53 -1.776,-5.067 -1.418,0.841 -1.093,3.234 -1.946,4.988 -1.106,-0.578 -0.314,0.097 -0.991,-1.106l-2.898 -10.138c-0.97,-4.765 -1.004,-9.79 -0.817,-14.489 -1.607,1.334 -6.729,9.748 -8.193,12.288 -1.361,-3.269 -1.476,-14.166 -1.446,-18.373 0.112,-16.596 16.873,-34.458 17.956,-40.074 -2.29,-0.281 -0.744,-0.108 -1.845,0.507 -0.727,0.407 -1.141,0.72 -1.826,1.089 -1.564,0.845 -2.24,1.214 -4.117,1.811 0.068,-2.619 0.625,-4.214 1.399,-6.452l4.159 -7.981c0.065,-0.081 0.164,-0.184 0.231,-0.264 0.066,-0.082 0.165,-0.184 0.234,-0.266 1.131,-1.377 2.621,-3.941 3.023,-5.8l0.418 -0.004z"/>
  <path class="fil3" d="M149.16 206.144c2.297,1 2.988,1.546 5.592,2.189 1.323,0.326 4.834,0.738 5.76,1.428 -6.882,-8.412 -12.528,-11.309 -14.8,-20.805l-7.763 -18.789 7.757 7.244c1.073,1.49 -7.301,-12.012 -7.515,-20.613 -0.072,-2.912 10.383,11.3 9.487,9.104 -3,-7.353 -1.286,-25.922 0.262,-25.187l27.562 4.434 8.324 -13.112c-7.815,-17.152 -38.993,-14.379 -44.118,-9.154 -9.256,11.344 -11.605,11.157 -12.069,22.262 -4.166,7.509 -2.078,24.111 0.483,32.385 1.767,5.707 4.709,11.816 8.01,16.742 1.513,2.257 7.504,7.792 10.457,9.912 3.069,2.203 1.483,0.055 2.571,1.96z"/>
  <path class="fil3" d="M172.171 144.351l0.408 0.436c5.002,-0.083 8.528,3.339 10.617,5.801 3.02,3.561 3.397,6.769 4.602,11.781 0.069,0.093 0.114,0.249 0.134,0.323l0.582 3.838c2.666,-0.309 4.232,-2.182 5.053,-4.403 2.62,-7.086 3.532,-10.052 0.784,-17.956 -0.363,-1.04 -0.572,-2.231 -1.026,-3.39l-3.959 -5.506c-0.065,-0.068 -0.17,-0.172 -0.235,-0.242 -0.069,-0.073 -0.166,-0.184 -0.235,-0.26l-1.744 -1.694c-1.11,-0.766 -1.58,-0.693 -2.194,-1.61 -1.01,-1.507 -0.266,-3.237 -2.034,-4.98 -0.647,-0.638 -0.27,-0.116 -1.111,-0.861 -1.763,-1.56 -1.02,-2.806 -5.36,-3.701 2.394,2.279 0.601,1.537 3.956,4.293 0.077,0.062 0.193,0.145 0.266,0.21l0.863 1.019c0.822,1.023 0.01,0.104 0.869,1.034 3.061,3.308 -2.97,7.752 -5.84,10.692 -0.076,0.077 -0.174,0.182 -0.25,0.259l-3.191 3.117c-0.64,0.757 -0.129,0.02 -0.596,0.828l-0.258 0.636c-0.02,-0.072 -0.086,0.22 -0.101,0.336z"/>
 </g>
</svg>
