<?xml version="1.0" encoding="UTF-8"?>
<!DOCTYPE svg PUBLIC "-//W3C//DTD SVG 1.1//EN" "http://www.w3.org/Graphics/SVG/1.1/DTD/svg11.dtd">
<!-- Creator: CorelDRAW 2018 (64 Bit) -->
<svg xmlns="http://www.w3.org/2000/svg" xml:space="preserve" width="100" height="100" version="1.1" style="shape-rendering:geometricPrecision; text-rendering:geometricPrecision; image-rendering:optimizeQuality; fill-rule:evenodd; clip-rule:evenodd" viewBox="0 0 30 30" xmlns:xlink="http://www.w3.org/1999/xlink">
	<defs>
		<style type="text/css">
		<![CDATA[
		.fil1 {fill:#193783}
		.fil2 {fill:#193783}
		.fil0 {fill:white}
		]]>
		</style>
	</defs>
	<g id="Capa_x0020_1">
		<metadata id="CorelCorpID_0Corel-Layer"/>
		<circle class="fil0" cx="15" cy="15" r="15"/>
		<path class="fil1" d="M11.46 12.252l-0.018 1.977 -5.761 -0.006c-1.045,0.01 -0.822,0.569 -0.841,0.732l0 4.9 14.593 -0.017c1.638,-0.075 0.794,1.39 1.191,2.084l4.67 0c0.296,-0.105 0.587,0.259 0.599,-0.868l-0.045 -2.708c0.063,-2.827 -1.876,-4.019 -4.801,-4.042 -1.589,-0.05 -2.656,-0.025 -4.244,-0.075l0 -2.045c0.005,-0.169 0.016,-0.507 -0.42,-0.496l-4.417 0.007c-0.58,-0.002 -0.507,0.31 -0.506,0.557z"/>
		<path class="fil2" d="M12.283 9.717l0.074 1.34 1.727 0 0 0.003 1.749 0 0.075 -1.34c0.149,-0.372 0.691,-0.257 1.414,0 5.361,1.861 5.287,-4.616 -0.062,-2.745 -0.236,0.213 -0.906,0.288 -1.352,0.065 -0.149,-0.112 0.212,-0.745 -0.631,-0.745l-1.204 -0.003 -1.16 0c-0.842,0 -0.481,0.633 -0.63,0.745 -0.447,0.223 -1.117,0.149 -1.352,-0.065 -5.349,-1.871 -5.424,4.606 -0.063,2.745 0.723,-0.257 1.266,-0.372 1.415,0z"/>
	</g>
</svg>
