<?xml version="1.0" encoding="utf-8"?>
<!-- Designed by Vexels.com - 2016 All Rights Reserved - https://vexels.com/terms-and-conditions/  -->

<svg version="1.0" id="Capa_1" xmlns="http://www.w3.org/2000/svg" xmlns:xlink="http://www.w3.org/1999/xlink" x="0px" y="0px"
	 width="1200px" height="1200px" viewBox="0 0 1200 1200" enable-background="new 0 0 1200 1200" xml:space="preserve">
<g>
	<path fill="#4ACACB" d="M1072.789,599.991c0,261.751-211.675,473.935-472.804,473.935c-261.119,0-472.774-212.184-472.774-473.935
		c0-261.73,211.655-473.917,472.774-473.917C861.114,126.074,1072.789,338.261,1072.789,599.991z"/>
	<g>
		<g>
			<path fill="#FFF6DD" d="M676.298,548.042c25.923,2.263,44.617-2.084,55.785-6.171c-17.311-7.074-68.249-32.617-68.249-86.23
				c0-64.55,47.341-107.223,89.675-107.223c42.323,0,165.224,76.45,165.224,197.641c0,121.129-114.576,216.472-151.099,216.472
				s-83.013-55.594-83.013-91.377c0-35.742,11.591-90.374,48.954-90.374c2.675,0,4.979-0.162,6.953-0.521
				c-14.205-7.394-65.073,0.521-65.073,0.521c-27.396,0-35.701,42.733-35.701,42.733v220.46H614.04c0,0,0-152.923,0-221.481
				C614.04,553.971,676.298,548.042,676.298,548.042z"/>
			<path fill="#FFF6DD" d="M532.419,548.042c-25.905,2.263-44.617-2.084-55.767-6.171c17.301-7.074,68.218-32.617,68.218-86.23
				c0-64.55-47.331-107.223-89.644-107.223c-42.364,0-165.235,76.45-165.235,197.641c0,121.129,114.586,216.472,151.11,216.472
				s83.034-55.594,83.034-91.377c0-35.742-11.612-90.374-48.974-90.374c-2.696,0-4.979-0.162-6.983-0.521
				c14.225-7.394,65.103,0.521,65.103,0.521c27.376,0,35.68,42.733,35.68,42.733v220.46h25.734c0,0,0-152.923,0-221.481
				C594.696,553.971,532.419,548.042,532.419,548.042z"/>
		</g>
	</g>
</g>
</svg>
