<?xml version="1.0" encoding="UTF-8"?>
<!DOCTYPE svg PUBLIC "-//W3C//DTD SVG 1.1//EN" "http://www.w3.org/Graphics/SVG/1.1/DTD/svg11.dtd">
<!-- Creator: CorelDRAW 2018 (64 Bit) -->
<svg xmlns="http://www.w3.org/2000/svg" xml:space="preserve" width="30px" height="30px" version="1.1" style="shape-rendering:geometricPrecision; text-rendering:geometricPrecision; image-rendering:optimizeQuality; fill-rule:evenodd; clip-rule:evenodd"
viewBox="0 0 30 30"
 xmlns:xlink="http://www.w3.org/1999/xlink">
 <defs>
  <style type="text/css">
   <![CDATA[
    .style_volu1 {fill:#2285C2}
    .style_volu2 {fill:white}
    .style_volu3 {fill:white}
   ]]>
  </style>
 </defs>
 <g id="Capa_x0020_1">
  <metadata id="CorelCorpID_0Corel-Layer"/>
  <circle class="style_volu3" cx="15.15" cy="14.85" r="14.625"/>
  <path class="style_volu1" d="M15.397 9.149c1.344,-0.038 0.826,-4.918 1.529,-5.891 1.032,-0.465 1.181,0.365 1.275,1.247 0.091,0.843 0.08,1.784 -0.007,2.62 -0.175,1.691 -0.866,2.977 -0.548,4.78 0.148,0.842 0.524,1.381 1.032,1.688 1.156,0.698 1.388,-1.362 3.331,-1.851 0.374,-0.093 0.821,-0.075 1.161,0.078 0.266,0.119 0.615,0.452 0.633,0.795 0.035,0.652 -1.197,0.738 -1.663,1.053 -0.354,0.24 -0.615,0.955 -1.109,1.61 -1.73,2.293 -3.63,2.241 -3.871,4.354 -0.204,1.789 0.379,5.743 0.67,7.516 -0.96,0.273 -1.411,0.531 -2.619,0.569 -0.877,0.028 -2.166,-0.041 -2.951,-0.287 -0.072,-0.964 -0.017,-2.06 -0.053,-3.048 -0.066,-1.849 -0.117,-3.914 -0.64,-5.657 -0.42,-1.399 -0.983,-3.747 -1.109,-5.192 -0.15,-1.73 -1.154,-2.906 -2.107,-4.199 -0.228,-0.31 -0.418,-0.547 -0.671,-0.873 -0.189,-0.244 -0.618,-0.647 -0.607,-0.977 0.094,-0.139 0.35,-0.349 0.646,-0.304 0.204,0.03 0.49,0.293 0.637,0.418 0.398,0.335 1.12,1.137 1.479,1.551l1.035 1.008c0.232,0.134 0.548,0.062 0.615,-0.222 0.18,-0.771 -1.637,-5.866 -1.422,-6.662 0.117,-0.236 0.792,-0.387 1.153,0.169 0.204,0.315 0.354,0.759 0.484,1.183 0.271,0.88 0.444,1.77 0.669,2.667 0.153,0.608 0.464,2.313 1.162,2.165 0.414,-0.088 0.237,-0.98 0.216,-1.372l-0.205 -4.869c-0.027,-0.539 -0.098,-1.103 0.5,-1.18 0.587,-0.076 0.909,0.265 0.962,0.756 0.112,1.019 0.21,2.054 0.281,3.082 0.048,0.684 -0.005,2.876 0.112,3.275z"/>
  <path class="style_volu2" d="M14.801 14.279c0.276,0.535 0.647,1.186 0.881,1.726 0.381,0.883 -0.512,1.821 -1.478,1.304 -0.522,-0.279 -0.535,-0.867 -0.383,-1.4 0.094,-0.333 0.265,-0.629 0.43,-0.876 0.09,-0.135 0.177,-0.258 0.269,-0.381l0.281 -0.373zm-0.133 -2.764l-0.01 0c-0.059,0.116 -0.01,0.09 -0.094,0.236l-0.365 0.623c-0.387,0.648 -1.175,1.925 -1.364,2.613 -0.103,0.373 -0.137,0.802 -0.115,1.21 0.064,1.164 0.843,1.841 2.138,1.838 0.746,-0.002 1.316,-0.356 1.677,-0.975 0.385,-0.662 0.317,-1.445 0.084,-2.193 -0.367,-1.175 -1.199,-2.238 -1.884,-3.246 -0.017,-0.025 -0.057,-0.08 -0.067,-0.106z"/>
 </g>
</svg>
