<?xml version="1.0" encoding="UTF-8"?>
<!DOCTYPE svg PUBLIC "-//W3C//DTD SVG 1.1//EN" "http://www.w3.org/Graphics/SVG/1.1/DTD/svg11.dtd">
<!-- Creator: CorelDRAW 2018 (64 Bit) -->
<svg xmlns="http://www.w3.org/2000/svg" xml:space="preserve" width="30px" height="30px" version="1.1" style="shape-rendering:geometricPrecision; text-rendering:geometricPrecision; image-rendering:optimizeQuality; fill-rule:evenodd; clip-rule:evenodd"
viewBox="0 0 30 30"
 xmlns:xlink="http://www.w3.org/1999/xlink">
 <defs>
  <style type="text/css">
   <![CDATA[
    .fil_style0 {fill:#FF6600}
    .fil_style1 {fill:#FF6600}
    .fil_style2 {fill:white}
   ]]>
  </style>
 </defs>
 <g id="Capa_x0020_1">
  <metadata id="CorelCorpID_0Corel-Layer"/>
  <circle class="fil_style2" cx="15.15" cy="14.85" r="14.625"/>
  <g id="_2128694731312">
   <path class="fil_style1" d="M14.957 7.541l11.558 0c0.601,0 1.093,0.492 1.093,1.093l0 8.385c0,0.601 -0.492,1.093 -1.093,1.093l-11.558 0c-0.601,0 -1.093,-0.492 -1.093,-1.093l0 -8.385c0,-0.601 0.492,-1.093 1.093,-1.093zm0.789 1.032l9.98 0c0.484,0 0.879,0.396 0.879,0.88l0 6.747c0,0.484 -0.395,0.88 -0.879,0.88l-9.98 0c-0.484,0 -0.88,-0.396 -0.88,-0.88l0 -6.747c0,-0.484 0.396,-0.88 0.88,-0.88z"/>
   <rect class="fil_style2" x="14.866" y="8.573" width="11.739" height="8.507" rx="1.214" ry="0.769"/>
  </g>
  <path class="fil_style1" d="M18.385 21.062l-1.15 0 3.089 -2.332c0.461,-0.368 0.861,-0.418 1.35,-0.009l2.861 2.341 -1 0 -2.25 -1.75 0 1.762 -0.65 -0.012 0.05 -1.75 -2.3 1.75z"/>
  <ellipse class="fil_style0" cx="8.258" cy="10.038" rx="1.764" ry="1.957"/>
  <path class="fil_style1" d="M11.831 13.285c-0.606,-0.441 -0.591,-0.766 -2.073,-0.677 -0.468,-0.039 -0.851,0.654 -1.494,0.714 -0.627,0.005 -1.073,-0.729 -1.759,-0.744 -1.35,0.044 -1.587,-0.122 -1.891,1.185l-1.742 6.235c-0.064,0.244 -0.038,0.389 0.127,0.46l1.169 0.371c0.137,0.036 0.244,-0.044 0.316,-0.256l1.474 -5.416 -0.071 7.093 5.169 -0.03 -0.031 -7.027 1.912 1.543c0.149,0.131 0.333,0.157 0.542,0.105l3.253 -0.719c0.339,-0.103 0.307,-0.253 0.27,-0.445l-0.152 -0.723c-0.064,-0.233 -0.277,-0.317 -0.61,-0.281l-2.315 0.503c-0.118,0.029 -0.246,0.012 -0.394,-0.094l-1.7 -1.797z"/>
 </g>
</svg>
