<?xml version="1.0" encoding="UTF-8"?>
<!DOCTYPE svg PUBLIC "-//W3C//DTD SVG 1.1//EN" "http://www.w3.org/Graphics/SVG/1.1/DTD/svg11.dtd">
<!-- Creator: CorelDRAW 2018 (64 Bit) -->
<svg xmlns="http://www.w3.org/2000/svg" xml:space="preserve" width="220px" height="220px" version="1.1" style="shape-rendering:geometricPrecision; text-rendering:geometricPrecision; image-rendering:optimizeQuality; fill-rule:evenodd; clip-rule:evenodd"
viewBox="0 0 220 220"
 xmlns:xlink="http://www.w3.org/1999/xlink">
 <defs>
  <style type="text/css">
   <![CDATA[
    .str1 {stroke:#9E3E3F;stroke-width:0.756;stroke-miterlimit:22.9256}
    .str0 {stroke:#CCCCCC;stroke-width:0.756;stroke-miterlimit:22.9256}
    .fil8 {fill:#742828}
    .fil5 {fill:#7B2B2C}
    .fil10 {fill:#8A3231}
    .fil4 {fill:#9E3E3F}
    .fil2 {fill:#B82E30}
    .fil7 {fill:#BB5254}
    .fil0 {fill:#CCCCCC}
    .fil1 {fill:#CE4649}
    .fil3 {fill:#D65959}
    .fil6 {fill:#E58E85}
    .fil9 {fill:#EBBBBB}
    .fil12 {fill:#F5D9D4}
    .fil11 {fill:#FCF2E5}
    .fil13 {fill:#FEA4A4}
   ]]>
  </style>
 </defs>
 <g id="Capa_x0020_1">
  <metadata id="CorelCorpID_0Corel-Layer"/>
  <g id="_3171647288576">
   <ellipse class="fil0 str0" cx="98.224" cy="84.25" rx="68.483" ry="51.825"/>
   <path class="fil1 str1" d="M82.041 19.924c-15.578,-4.81 -26.277,-10.535 -37.673,30.695l-2.31 10.3c-0.143,1.182 -0.309,3.822 -0.346,5.078l0.764 15.111c0.056,5.031 0.941,3.537 1.585,8.13l2.722 12.639c1.401,3.705 0.797,1.314 1.449,4.836l5.954 14.814c18.015,37.901 23.177,21.408 32.882,26.966 2.438,-2.013 8.842,-4.292 11.145,-5.029l11.524 -1.337c-2.32,-2.091 -1.154,-2.071 -0.392,-5.135 0.049,-0.2 0.135,-0.445 0.184,-0.645l0.419 -1.938c1.213,-6.416 3.243,-9.205 0.328,-12.138 -1.933,-0.331 -3.43,0.876 -5.384,2.607l-7.41 7.89c-13.917,8.652 -20.534,-11.169 -23.405,-21.156 -3.068,-10.672 -7.311,-22.645 -9.878,-34.184 -2.176,-9.777 -4.199,-25.745 3.741,-35.157 12.151,-14.404 24.642,-2.711 31.268,9.556 3.821,5.763 6.04,11.01 6.926,16.43 0.701,4.285 0.886,11.931 4.611,15.441 2.532,3.335 0.252,1.336 3.956,4.379 0.223,-0.823 0.572,-1.71 0.684,-2.467l-0.757 -32.281c-0.3,-2.493 -0.531,-4.367 -0.869,-6.897l-2.379 -12.655c0.329,-2.463 -4.505,-0.894 -12.311,-4.386 -3.77,-1.687 -13.266,-9.62 -17.028,-9.467z"/>
   <path class="fil2" d="M38.585 137.41c11.41,7.257 11.955,10.008 24.634,12.61 4.562,0.937 7.394,0.977 12.033,0.792 1.7,-0.067 9.645,-1.518 11.816,-2.319 -9.705,-5.558 -14.867,10.935 -32.882,-26.966l-5.954 -14.814c-0.652,-3.522 -0.048,-1.131 -1.449,-4.836l-2.722 -12.639c-0.644,-4.593 -1.529,-3.099 -1.585,-8.13l-0.764 -15.111c0.037,-1.256 0.203,-3.896 0.346,-5.078l2.31 -10.3c5.816,-21.043 23.312,-33.882 39.871,-27.446 1.896,0.737 5.307,0.899 7.247,1.413l-4.218 -2.663c-4.851,-4.907 -16.64,-7.066 -21.893,-7.464 -29.146,-2.205 -55.787,44.044 -47.619,84.411 2.118,10.464 9.041,29.758 20.829,38.54z"/>
   <path class="fil3 str1" d="M113.759 46.432c0.338,2.53 0.569,4.404 0.869,6.897l0.757 32.281 -0.684 2.467c5.379,4.894 4.674,-46.719 9.152,-47.289 38.503,-4.9 54.352,102.61 -12.15,84.079 -12.352,-3.442 -2.072,17.223 -1.966,17.26 2.126,0.742 116.906,-7.393 41.368,-100.137 -7.375,-6.634 -0.407,2.445 -15.635,-14.772 -4.619,0.49 -7.042,1.337 -11.813,2.855 -14.139,4.498 -13.527,-2.939 -9.898,16.359z"/>
   <path class="fil2 str1" d="M182.036 100.999c-2.889,4.59 -14.49,21.535 -19.083,23.546 -1.201,0.526 -5.573,4.888 -7.342,5.073 4.895,-7.039 7.342,-5.073 10.376,-34.165l-0.755 -12.067c-0.709,-2.612 -0.34,-0.785 -0.589,-3.773l-2.279 -9.502c-1.067,-3.338 0.039,-2.62 -1.581,-6.057l-4.45 -10.524c-0.44,-0.841 -1.425,-2.579 -1.914,-3.334l-4.995 -6.221c-10.967,-12.342 -27.244,-14.922 -37.86,-9.528l-0.18 -1.066c1.746,-4.965 8.05,-4.875 11.561,-6.911 19.477,-11.298 53.187,11.167 60.828,41.341 1.981,7.821 3.54,23.258 -1.737,33.188z"/>
  </g>
  <g id="_3171647283424">
   <path class="fil4 str1" d="M100.55 147.478c-4.019,-4.528 -0.282,-10.866 5.059,-13.598 12.558,-6.423 40.488,-7.467 50.705,-0.679 6.224,4.134 -1.83,5.367 -7.028,6.863 -5.596,1.61 -38.127,10.5 -42.256,10.087 -1.629,-0.164 -5.734,-1.831 -6.48,-2.673zm1.984 23.842c0.07,-0.067 0.661,-0.573 0.942,-0.83 6.357,-5.838 10.592,-14.318 26.368,-18.36 6.145,-1.574 7.527,-2.029 13.617,-2.248l1.092 -0.032c6.212,-0.034 4.922,0.39 8.975,0.857l1.538 0.016c3.397,-0.006 0.017,-1.037 2.334,0.759 0.125,0.097 0.619,0.585 0.828,0.682 3.799,-1.126 0.067,-0.19 4.389,0.489 0.108,0.017 0.318,0.036 0.42,0.049l13.859 10.419c19.951,-0.495 25.592,-2.45 28.63,-16.96 0.368,-1.757 -4.785,-2.571 -4.691,-4.539 0.216,-4.492 -0.362,-1.942 1.022,-2.749 -9.951,-14.507 -39.858,-18.985 -56.118,-19.213 -10.185,-0.142 -21.363,1.518 -32.424,3.948 -6.467,1.421 -31.066,9.022 -36.825,13.209 -1.783,1.296 1.955,2.914 2.807,5.994l-0.366 12.861c1.432,11.746 5.927,15.697 15.85,17.233 2.394,0.37 1.804,0.363 3.351,-0.314 3.024,-1.324 -2.335,-0.675 1.087,0.002 1.666,0.33 1.428,0.098 3.315,-1.273z"/>
   <path class="fil5 str1" d="M61.716 170.999c1.772,1.186 5.504,17.083 10.041,18.632 32.079,23.635 69.838,14.168 110.763,-13.745 -0.994,-5.332 -25.397,-27.122 -22.189,-31.001 -0.783,-4.024 -22.477,-0.61 -38.894,10.249 -3.422,-0.677 -20.281,16.133 -23.305,17.457 -1.547,0.677 -0.957,0.684 -3.351,0.314 -9.923,-1.536 -14.418,-5.487 -15.85,-17.233l0.366 -12.861c0.723,-7.273 5.353,-9.13 -0.574,-6.949 -6.565,1.968 -12.537,11.414 -14.694,15.756 -2.513,5.061 -3.228,12.559 -2.313,19.381z"/>
   <path class="fil6" d="M53.485 177.845c0.324,10.012 9.422,2.197 15.061,-0.447 1.129,2.257 -4.475,0.094 -4.357,2.585 0.153,3.208 0.322,3.641 1.396,7.13 0.167,0.075 0.369,0.217 0.474,0.278 14.924,8.641 11.426,-29.075 11.418,-29.094 -2.612,-1.681 0.066,-5.769 -2.022,-9.959 -7.839,-2.064 -11.935,1.84 -15.123,11.191 -5.32,15.607 -1.87,16.652 -6.847,18.316z"/>
   <path class="fil7" d="M127.167 135.988c1.942,-5.766 9.651,-6.362 10.683,-1.032 0.941,4.866 -7.884,5.685 -10.683,1.032zm-15.502 -2.088c6.638,-5.311 16.574,6.588 7.367,11.429 -9.778,5.142 -15.085,-5.254 -7.367,-11.429zm-11.115 13.578c0.746,0.842 4.851,2.509 6.48,2.673 4.129,0.413 36.66,-8.477 42.256,-10.087 5.198,-1.496 13.252,-2.729 7.028,-6.863 -10.217,-6.788 -38.147,-5.744 -50.705,0.679 -5.341,2.732 -9.078,9.07 -5.059,13.598z"/>
   <path class="fil8 str1" d="M167.559 159.825c1.931,6.552 6.003,9.06 8.834,12.865 2.137,0.276 4.008,1.273 6.127,3.196 10.529,-7.737 20.004,-9.813 23.417,-21.57 -6.788,-3.062 -17.045,5.314 -25.959,3.828 -1.279,-0.213 -3.275,-0.62 -4.401,-0.815 -9.734,-1.686 -4.216,-3.442 -9.397,-1.641l1.379 4.137z"/>
   <path class="fil9" d="M67.9 202.6c6.526,-6.06 5.628,-9.466 9.071,-16.849 1.949,-4.18 4.584,-20.776 0.787,-24.175 -9.184,-4.537 -14.991,23.864 -15.868,30.034 -1.154,5.607 4.006,7.327 6.01,10.99z"/>
   <path class="fil10" d="M102.534 171.32c1.704,-0.891 1.13,-1.057 1.514,0.91 7.862,-9.186 27.369,-13.459 38.002,-12.896l4.589 -2.672c2.75,-4.412 8.171,-3.247 11.589,-4.498 -0.209,-0.097 -0.703,-0.585 -0.828,-0.682 -2.317,-1.796 1.063,-0.765 -2.334,-0.759l-1.538 -0.016c-4.053,-0.467 -2.763,-0.891 -8.975,-0.857l-1.092 0.032c-6.09,0.219 -7.472,0.674 -13.617,2.248 -15.776,4.042 -20.011,12.522 -26.368,18.36 -0.281,0.257 -0.872,0.763 -0.942,0.83z"/>
   <path class="fil10" d="M167.559 159.825l-1.379 -4.137c5.181,-1.801 -0.337,-0.045 9.397,1.641 1.126,0.195 3.122,0.602 4.401,0.815 8.914,1.486 19.171,-6.89 25.959,-3.828 0.908,-4.262 -0.369,-11.237 -4.08,-15.443 -1.384,0.807 -0.806,-1.743 -1.022,2.749 -0.094,1.968 0.125,1.892 -0.243,3.649 -3.038,14.51 -12.262,6.98 -32.213,7.475l-5.342 -0.044c-0.102,-0.013 -0.312,-0.032 -0.42,-0.049 -4.322,-0.679 -0.59,-1.615 -4.389,-0.489 1.752,2.009 2.429,1.586 4.577,3.051 2.154,1.47 2.736,3.53 4.754,4.61z"/>
   <path class="fil11" d="M124.721 186.398c1.736,-5.816 1.403,-3.905 -2.857,-8.131 -0.762,-0.754 -0.814,-0.569 -1.432,-1.933 -1.579,-3.481 -0.412,-1.948 -0.385,-2.743 0.035,-0.984 1.588,-0.124 -1.57,-5.233 -2.931,0.284 -5.502,0.153 -7.066,3.828 -3.04,7.144 3.113,19.83 13.31,14.212z"/>
   <path class="fil12" d="M64.768 153.399c2.333,0.696 2.919,2.299 5.254,2.204 8.404,-0.342 5.072,-12.12 -5.112,-11.438 -5.77,0.386 -16.249,10.988 -8.171,11.764 2.74,0.263 4.945,-1.592 8.029,-2.53z"/>
   <path class="fil13" d="M111.665 133.9c-7.718,6.175 -2.411,16.571 7.367,11.429 9.207,-4.841 -0.729,-16.74 -7.367,-11.429z"/>
   <path class="fil12" d="M137.611 169.993c-7.641,7.36 1.884,17 5.1,11.806 0.825,-1.332 0.162,-2.724 0.41,-4.611 0.363,-2.756 1.217,-2.123 1.493,-4.26 0.646,-5.001 -4.51,-5.335 -7.003,-2.935z"/>
   <path class="fil13" d="M166.449 135.758c2.799,4.652 11.624,3.833 10.683,-1.032 -1.032,-5.331 -8.741,-4.735 -10.683,1.032z"/>
   <path class="fil9" d="M158.197 167.096c-0.644,1.494 -0.778,-0.326 -0.228,1.684 0.288,1.053 0.461,0.979 0.754,1.267 0.005,0.006 7.114,5.786 8.766,0.872 1.736,-5.161 -7.363,-8.298 -9.292,-3.823z"/>
  </g>
 </g>
</svg>
